<?xml version="1.0" encoding="UTF-8"?>
<svg id="Layer_1" data-name="Layer 1" xmlns="http://www.w3.org/2000/svg" viewBox="0 0 900 300">
  <defs>
    <style>
      .cls-1 {
        fill: #442b20;
      }

      .cls-2 {
        fill: #4e2b21;
      }

      .cls-3 {
        fill: #472c20;
      }

      .cls-4 {
        fill: #844131;
      }

      .cls-5 {
        fill: #492d21;
      }

      .cls-6 {
        fill: #d28a37;
      }

      .cls-7 {
        fill: #6f6c22;
      }

      .cls-8 {
        fill: #feefd4;
      }

      .cls-9 {
        fill: #7e7925;
      }

      .cls-10 {
        fill: #5b3e29;
      }

      .cls-11 {
        fill: #e2983e;
      }

      .cls-12 {
        fill: #fadcb1;
      }

      .cls-13 {
        fill: #e9b879;
      }

      .cls-14 {
        fill: #ec8d2c;
      }

      .cls-15 {
        fill: #533b2a;
      }

      .cls-16 {
        fill: #c18141;
      }

      .cls-17 {
        fill: #c4823f;
      }

      .cls-18 {
        fill: #eaa047;
      }

      .cls-19 {
        fill: none;
        stroke: #6f6c22;
        stroke-linecap: round;
        stroke-miterlimit: 10;
        stroke-width: 3.5px;
      }

      .cls-20 {
        fill: #f4ad4e;
      }
    </style>
  </defs>
  <rect class="cls-12" x="0" width="900.49" height="301.69"/>
  <path class="cls-13" d="M405.7,216.93s99.87-52.82,121.86-50.55,32.3,5.22,47.41-2.72,102.39-52.67,111.09-55.39c8.7-2.72,29.55-10.22,49.48,4.54,19.93,14.76,165.05,81.95,165.05,81.95v30.19h-494.89v-8.02Z"/>
  <path class="cls-8" d="M178.67,69.48c-1.86,0-3.64.33-5.25.94-1.76-4.87-6.89-8.39-12.95-8.39-1.3,0-2.55.17-3.74.47-.83-5.98-6.55-10.61-13.5-10.61-6.39,0-11.74,3.92-13.21,9.2-2.03-1.07-4.4-1.69-6.94-1.69-7.51,0-13.6,5.42-13.6,12.11,0,.96.13,1.88.36,2.78-6.53.89-11.53,5.91-11.53,11.97,0,6.69,6.09,12.11,13.6,12.11,2.99,0,5.74-.86,7.99-2.31,1.23,5.56,6.74,9.76,13.35,9.76,5.55,0,10.31-2.96,12.43-7.19,2.46,3.12,6.53,5.17,11.14,5.17,7.51,0,13.6-5.42,13.6-12.11,0-.15,0-.3-.01-.45,2.29,1.55,5.14,2.48,8.24,2.48,7.51,0,13.6-5.42,13.6-12.11s-6.09-12.11-13.6-12.11Z"/>
  <path class="cls-8" d="M834.5,51.82c-1.93,0-3.77.35-5.45.97-1.83-5.05-7.15-8.7-13.43-8.7-1.35,0-2.65.17-3.88.48-.86-6.2-6.8-11.01-14-11.01-6.63,0-12.18,4.07-13.7,9.55-2.11-1.11-4.57-1.76-7.19-1.76-7.79,0-14.11,5.62-14.11,12.56,0,.99.13,1.95.38,2.88-6.77.92-11.96,6.13-11.96,12.42,0,6.94,6.32,12.56,14.11,12.56,3.1,0,5.96-.89,8.29-2.4,1.27,5.77,6.99,10.13,13.84,10.13,5.75,0,10.7-3.07,12.9-7.46,2.55,3.24,6.78,5.36,11.56,5.36,7.79,0,14.11-5.62,14.11-12.56,0-.16,0-.31-.01-.47,2.37,1.61,5.33,2.57,8.55,2.57,7.79,0,14.11-5.62,14.11-12.56s-6.32-12.56-14.11-12.56Z"/>
  <path class="cls-20" d="M0,200.18s281.53,24.41,539.2,14.92c257.67-9.49,361.29,2.19,361.29,2.19v84.4H0v-101.51Z"/>
  <ellipse class="cls-11" cx="209.86" cy="284.16" rx="9.26" ry="4.43"/>
  <ellipse class="cls-11" cx="42.4" cy="238.74" rx="7.45" ry="3.56"/>
  <path class="cls-18" d="M538.58,215.08c-38.92,1.43-78.38,2.09-117.34,2.18,23.46,2.91,327.03,41.05,478.76,84.41v-84.4s-103.66-11.68-361.42-2.19Z"/>
  <ellipse class="cls-11" cx="848.19" cy="255.37" rx="9.26" ry="4.43"/>
  <path class="cls-14" d="M646.81,302.2c-3.43-4.07-7.68-10.25-11.31-19.01-7.56-18.22,54.22-31.56,58.22-46.67,3.87-14.63-27.23-23.9-29.21-24.47-2.62.02-5.26.05-7.93.08l-27.33.37c-2.92.05-5.87.1-8.85.15,15.04,3.6,29.92,8.9,29.92,8.9,24.59,11.26-2.37,26.67-45.33,38.74-31.75,8.92-38.25,30.99-39.49,41.9h81.31Z"/>
  <g>
    <path class="cls-9" d="M765.6,141.28c.12-4.3.47-9.72,1.62-13.88.29-1.03.69-1.97,1.21-2.83,1.62-2.7,4.42-4.55,7.54-5.05,4.65-.75,9.17,1.15,11.36,5.42,1.26,2.46,1.94,5.11,2.2,7.86.26,2.72.53,5.44.79,8.16h0c-.07,15.04-.13,30.09-.19,45.13,0,.35.11.7.2,1.26,0,0,0,0,0,0,2.39-.01,3.89-1.19,4.98-3.22,1.98-3.68,2.41-7.71,2.85-11.75.5-4.62.78-9.27,1.46-13.86.55-3.75,2.76-5.42,6.07-5.18,2.37.17,4.05,1.3,4.87,3.57.24.67.45,1.37.55,2.07,1.29,9.43,1.21,18.84-1.34,28.05-2.6,9.39-7.66,13.34-17.41,14.24q-2.2.2-2.21,2.97c-.04,11.94-.07,23.88-.14,35.83-.01,2.14.13,4.3-.41,6.41q-1.02,5.01-6.73,5.01c-4.26,0-8.52.02-12.78-.01-1.28,0-2.64.2-3.68-.85,0,0,0,0,0,0-2.07-4.36-1.4-9.12-1.79-13.69-.59-6.83-.3-6.88-6.94-8.7-8.43-2.31-13.34-8.11-15.71-16.18-3.23-10.95-2.91-22.19-2.2-33.42.1-1.65.56-3.3,1.33-4.81,1.67-3.3,5.11-5.43,8.4-5.04,3.64.43,5.75,2.77,6.77,6.08,1.45,4.73.93,9.72,1.69,14.55.81,5.17.44,10.51,2.15,15.57.58,1.71,1.21,3.43,2.65,4.59,1.1.88,2.16.84,2-1.11-.06-.73-.15-1.47-.17-2.2-.55-18.56,1.18-37.08.66-55.64-.05-1.7.33-7.79.37-9.32Z"/>
    <path class="cls-7" d="M777.03,127.79h0c.78,0,1.42.64,1.42,1.42v121.62h-2.84v-121.62c0-.78.64-1.42,1.42-1.42Z"/>
    <path class="cls-7" d="M762.51,223.35c-.2,0-.4-.04-.59-.12-19.22-8.36-15.25-41.08-15.07-42.47.1-.82.85-1.39,1.67-1.29.82.1,1.39.85,1.29,1.67-.04.32-3.87,31.9,13.3,39.36.75.33,1.1,1.21.77,1.96-.24.56-.79.9-1.37.9Z"/>
    <path class="cls-7" d="M794.27,196.02c-.73,0-1.36-.53-1.47-1.28-.12-.81.45-1.57,1.26-1.69,8.39-1.22,10.03-20.07,9.96-27.23,0-.82.65-1.5,1.47-1.51.82-.01,1.5.65,1.51,1.47.01,1.16.17,28.37-12.51,30.21-.07.01-.14.02-.22.02Z"/>
  </g>
  <g>
    <path class="cls-9" d="M114.58,168.41c.15-5.23.57-11.84,1.97-16.9.35-1.26.84-2.4,1.47-3.45,1.98-3.29,5.39-5.54,9.17-6.15,5.66-.92,11.16,1.4,13.83,6.59,1.54,2.99,2.36,6.22,2.68,9.57.32,3.31.64,6.62.96,9.93h0c-.08,18.31-.16,36.63-.23,54.94,0,.43.13.85.24,1.53,0,0,0,0,0,0,2.91-.01,4.74-1.45,6.06-3.92,2.41-4.48,2.93-9.39,3.46-14.3.61-5.62.95-11.29,1.77-16.88.67-4.57,3.36-6.6,7.39-6.31,2.89.21,4.93,1.59,5.93,4.35.29.81.55,1.66.67,2.52,1.57,11.48,1.47,22.94-1.64,34.15-3.17,11.43-9.33,16.24-21.19,17.34q-2.68.25-2.69,3.62c-.05,14.54-.08,29.08-.16,43.61-.02,2.61.16,5.24-.49,7.81q-1.25,6.09-8.19,6.09c-5.19,0-10.37.02-15.56-.01-1.56,0-3.21.24-4.48-1.04,0,0,0,0,0,0-2.52-5.31-1.7-11.1-2.18-16.67-.71-8.32-.37-8.38-8.44-10.59-10.26-2.81-16.23-9.87-19.13-19.7-3.93-13.33-3.54-27.02-2.68-40.69.13-2.01.68-4.01,1.61-5.86,2.04-4.01,6.23-6.61,10.22-6.14,4.43.52,7.01,3.37,8.24,7.4,1.77,5.76,1.14,11.83,2.06,17.71.99,6.3.53,12.8,2.61,18.95.71,2.08,1.48,4.17,3.23,5.59,1.33,1.08,2.63,1.02,2.43-1.35-.08-.89-.18-1.79-.2-2.68-.67-22.59,1.44-45.14.8-67.74-.06-2.07.4-9.49.45-11.34Z"/>
    <path class="cls-7" d="M128.43,151.99h.12c.92,0,1.67.75,1.67,1.67v148.12h-3.45v-148.12c0-.92.75-1.67,1.67-1.67Z"/>
    <path class="cls-19" d="M93.55,216.7s-5.15,40.07,17.27,49.81"/>
    <path class="cls-19" d="M163.16,198.28s.37,32.93-13.67,34.96"/>
  </g>
  <path class="cls-16" d="M292.24,162.74c1.99-.03,3.84.76,5.79,1,2.01.25,3.95.97,6.01.86.83-.04,1.07.35,1.04,1.1-.03.66.04,1.32.06,1.98-.68,12.29-2.08,24.46-5.92,36.24-.97,2.96-2.02,5.91-2.46,9.02-.62,4.35.41,8.55,1.24,12.76,1.26,6.37,3.22,12.59,3.82,19.09.13,1.42.14,2.86.21,4.29-.36.81-1.12.84-1.83.83-2.67-.03-5.31.18-7.92.75-.55.12-1.12.15-1.58-.31-.88-6.18-1.72-12.36-2.82-18.5-.78-4.33-1.46-8.7-3.06-12.81-2.32-5.95-2.44-11.91-.75-18.05,2.83-10.32,4.79-20.83,6.55-31.38.39-2.31,1.09-4.58,1.64-6.86Z"/>
  <path class="cls-17" d="M365.88,168.19c1.35.03,2.56.56,3.79,1.01.88.32,1.35.86,1.19,1.83.09,10.54-1.31,20.93-2.96,31.3-.95,5.96-2.08,11.9-2.71,17.9-.57,5.5-.26,11.06-.02,16.59.2,4.6.52,9.2.39,13.82-2.28.99-4.53.72-6.76-.18-.81-1.82-.47-3.73-.32-5.59.22-2.82.31-5.62-.03-8.43-.09-.76-.09-1.53-.09-2.3,0-4.61.07-9.22-.01-13.82-.23-12.83.66-25.57,2.61-38.25.42-2.73.77-5.47,1.35-8.18.35-1.62.95-3.14,1.9-4.5.41-.58.83-1.19,1.67-1.19Z"/>
  <path class="cls-3" d="M358.89,250.34c2.22.32,4.45.39,6.69.29,1.53,1.44,2.48,3.22,3.03,5.23.22.79.23,1.19-.84,1.17-6.7-.13-13.4-.19-20.1-.29-1.79-.03-1.79-.04-1.3-1.75.44-1.53.95-3.03,1.8-4.39,1.18-.27,2.36-.57,3.54-.81,1.65-.33,3.07.28,4.42,1.13,1.79.84,2.31,2.55,2.81,3.92-.38-1.3-.96-2.89-.04-4.52Z"/>
  <path class="cls-5" d="M267.9,248.7c2.54-.54,5.07-1.22,7.66-.25,2.1,1.9,3.94,3.99,5.18,6.58.5,1.05.29,1.48-.92,1.47-5.52-.06-11.04-.09-16.56-.09-1.27,0-1.43-.39-.91-1.51,1.24-2.64,2.56-5.15,5.55-6.2Z"/>
  <path class="cls-1" d="M290.69,250.35c3.38-.52,6.74-1.11,10.19-.92.37.02.76-.23,1.15-.36,1.11,2.01,2.81,3.62,3.8,5.72.83,1.78.74,2.01-1.16,1.99-4.59-.05-9.18-.14-13.78-.15-1.05,0-1.28-.3-1.05-1.32.37-1.64.58-3.31.86-4.97Z"/>
  <path class="cls-6" d="M466.73,87.72h0s0,0,0,0c-.28-2.53-.4-5.07-1.15-7.54-1.45-4.82-4.19-8.39-9.31-9.58-3.63-.84-7.33-.61-10.99-.23-2.76.28-5.35.38-8.12-.55-6.01-2.02-12.07-1.82-17.88,1.01-2.25,1.09-3.83,3.02-5.61,4.7-.88.84-1.3,1.19-1.91-.35-1.3-3.33-2.86-4.6-5.79-4.4-3.21.23-3.89,1.02-3.02,4.2.05.2.15.38.21.58.58,1.9,1.83,3.39,2.99,4.94.45.6,1.04,1.14.9,2.02-.37,2.29-.18,4.58-.03,6.88.11,1.57.26,3.16-.1,4.73-.17.81-.26,1.63,0,2.44h0c-.11.71-.32,1.42-.31,2.12.13,6.71-1.08,13.21-3.16,19.56-1.49,4.58-3.12,9.11-6.7,12.55-3.05,2.93-6.59,4.46-10.89,3.3-2.46-.66-4.51-2.11-6.46-3.68-3.87-3.11-7.21-6.58-8.69-11.53-1.22-4.05-2.79-7.99-4.78-11.73-1.71-3.22-3.58-6.32-6.96-8.1-.14.07-.28.16-.32.3-.54,2.35-1.75,4.39-2.98,6.42-.24.39-.46.79-.35,1.28.01.03.03.05.04.07-1.33,1.18-2.55,2.46-3.68,3.83-.07-.02-.13-.05-.2-.06-.71.12-1.16.56-1.42,1.21,0,.04,0,.07,0,.11-1.26.72-2.52,1.43-3.77,2.15,0,0,0,0,0,0-.84-.29-1.49.07-2.1.6-.07.08-.12.16-.17.24-1.98.57-3.96,1.14-5.94,1.71-.05-.05-.09-.11-.14-.16-.89-.41-1.72-.29-2.49.32-.04.06-.07.12-.11.19-2.13.21-4.26.42-6.39.63-.06-.05-.12-.1-.2-.15-.17-.04-.33-.01-.48.07-.03.04-.05.07-.08.11-1.7.08-3.4.13-5.1.24-.7.05-1.44-.2-2.1.13-.07,0-.13,0-.21.02-.05.03-.09.07-.13.11-1.67-.72-3.38-.74-5.12-.31,0,0,0,0,0,.01-.05-.06-.09-.13-.14-.19-1.39-.45-2.78-.42-4.17,0-.11.08-.2.16-.28.24-1.7.05-3.41-.15-5.1.13-.1-.07-.22-.13-.36-.18-.36-.08-.71-.06-1.07.03-.3.08-.55.18-.76.32-1.86,0-3.72,0-5.59,0-.01-.02-.01-.04-.03-.06-.23-.17-.48-.18-.74-.09-.07.04-.12.1-.18.14-3.35-.17-6.65-.7-9.95-1.25-.46-.91-1.41-.93-2.23-1.17-3.52-1.01-7-2.11-9.8-4.64-.22-.2-.45-.43-.8-.27-.7.41-1.41.79-2.09,1.23-6.16,3.99-10.46,9.64-13.92,15.96-4.44,8.11-8.19,16.61-13.52,24.22.33,1.06,1.26,1.4,2.16,1.78,4.53-4.02,7.66-9.1,10.68-14.26.64-1.1.98-2.39,2.3-3.53-1.77,7.16-.93,13.85.81,20.49.78,2.96,1.75,5.86,2.45,8.84,1.03,4.37.75,8.84.72,13.28-.03,5.22-.62,10.41-.99,15.61-.39,5.55-1.31,11.06-1.52,16.63-.14,3.8.37,7.56.71,11.32.33,3.7,1.02,7.39,1.91,11.01,1.23,4.99,2.55,9.97,3.83,14.95,2.56.25,5.09-.56,7.66-.25.53-1.03.71-2.13.51-3.27-.62-3.57-1.19-7.15-1.91-10.71-1.02-5.02-1.72-10.06-1.41-15.21.23-3.89,1.12-7.54,3.12-10.93,1.81-3.08,3.67-6.13,5.19-9.37,2-4.26,3.37-8.75,4.57-13.29,1.35-5.08,2.6-10.18,3.49-15.37.45-2.66.79-5.36,1.68-7.93.23-.67.4-1.81,1.28-1.56.89.26.08,1.25.16,1.91.46.34,1,.5,1.55.62,2.79.63,5.59,1.26,8.43,1.55,1.6.17,2.65.46,2.56,2.3,0,.2.18.36.36.47.06-.19.16-.38.18-.58q.24-2.36,2.67-1.95c.15.03.3.03.46.05,5.89.64,11.77,1.33,17.69,1.65,5.65.3,11.23.17,16.74-1.2.98-.24,1.3-.02,1.27.99-.04,1.64-.08,3.28.04,4.91.63,8.86,2.01,17.64,2.52,26.53.52,9.02-.08,17.99-.58,26.97-.28,5.02-.23,10.01.34,15,.41,3.55,1.63,6.96,1.69,10.56.65.39,1.3.11,1.93-.03,1.72-.4,3.41-.61,5.06.32.38.22.87.39,1.22-.13.35-.78.24-1.61.25-2.42.1-7.83-.31-15.64-.55-23.46-.35-11.46.13-22.91,1.8-34.28.76-5.16,1.54-10.32,2.63-15.42.5-2.34,1.49-4.47,3.07-6.28.54-.62,1.15-1.25,2.09-.62.56.41,1.23.45,1.86.63,1.33.38,2.63.8,3.36,2.13.61-.36,1.29-.26,1.95-.26,2.82-.01,5.61-.28,8.39-.75,5.47-.92,10.65-2.78,15.87-4.56,6.98-2.38,12.91-6.3,17.55-12.08,3.21-3.99,5.44-8.53,7.14-13.31,1.59-4.47,3.07-9,3.8-13.71.77-4.97,2.02-9.8,4.17-14.35,1.09-2.3,2.3-4.55,3.45-6.83,0,0,0,0,0,0h0c.34-.72.51-.84,1.01-1.82h0c4.38-2.42,8.51-5.3,13.12-7.27,1.3-.56,2.77-.34,4,.36,2.54,1.45,7.91,1.11,10.3-.2,1.69-.93,3.35-2.71,4.54-5.34,0,0,.65-1.12.57-3.19Z"/>
  <path class="cls-2" d="M433.05,81c-.02,1.42-1.33,2.66-2.8,2.66-1.58,0-3.19-1.7-3.16-3.34.03-1.61,1.51-3.11,3.02-3.07,1.48.04,2.98,1.95,2.95,3.75Z"/>
  <path class="cls-10" d="M412.01,78.85c1.04.26,2.04.45,2.93.95.39.22.59.54.42,1.01-.15.42-.21.89-.78,1.01-1.08.24-2.94-1.07-3.12-2.2-.08-.49.04-.8.54-.78Z"/>
  <path class="cls-15" d="M456.61,78.18c-.84-.24-.98-.8-.94-1.46.04-.69.46-1.02,1.12-.94.6.07,1.12.47,1.06,1.09-.06.71-.69,1.05-1.23,1.31Z"/>
  <path class="cls-4" d="M274.37,111.15c-.39-1.06-.65-2.15-.68-3.29-.12-4.34,1.46-6.49,5.62-7.82,5.71-1.83,10.48-5.02,14.04-9.94,2.62-3.61,4.89-7.45,7.42-11.12.2-.3.4-.59.6-.89,6.61-9.54,17.94-11.15,27.11-3.9,3.54,2.8,6.21,6.37,9.01,9.83,1.26,1.55,2.56,3.07,3.81,4.62,2.31,2.87,5.39,3.75,8.9,3.48,3.07-.24,5.46.88,7.38,3.25.89,1.1,1.09,2.4,1.39,3.69,4.7,27.47-79.81,26.47-84.6,12.1Z"/>
</svg>