<?xml version="1.0" encoding="UTF-8"?>
<svg id="Layer_1" xmlns="http://www.w3.org/2000/svg" version="1.1" viewBox="0 0 194.26 159.09">
  <!-- Generator: Adobe Illustrator 29.5.1, SVG Export Plug-In . SVG Version: 2.1.0 Build 141)  -->
  <defs>
    <style>
      .st0 {
        fill: #49b795;
      }

      .st0, .st1, .st2, .st3, .st4, .st5 {
        fill-rule: evenodd;
      }

      .st6, .st4 {
        fill: #0c9d7b;
      }

      .st1 {
        fill: #066f52;
      }

      .st2, .st7 {
        fill: #3090c7;
      }

      .st3 {
        fill: #1c629f;
      }

      .st5 {
        fill: #7cc1de;
      }
    </style>
  </defs>
  <path class="st7" d="M142.29,19.92l51.96,29.99v59.98s-51.96,30.02-51.96,30.02l-75.47-43.57-14.85,8.57-22.27-12.85v-25.7s22.28-12.86,22.28-12.86l22.27,12.86v17.13s68.04,39.27,68.04,39.27l37.12-21.44v-42.83s-37.11-21.42-37.11-21.42l-14.84,8.55-14.84-8.56,29.68-17.13Z"/>
  <path class="st6" d="M127.45,62.77l14.84-8.56,22.26,12.86v25.69l-22.28,12.88-22.26-12.87v-17.14S51.97,36.34,51.97,36.34L14.85,57.8v42.83s37.11,21.41,37.11,21.41l14.85-8.56,14.83,8.57-29.67,17.12L0,109.2v-59.98s51.96-30.04,51.96-30.04l75.49,43.59Z"/>
  <g>
    <polygon class="st4" points="52.25 107.83 52.25 79.17 27.44 64.85 27.44 79.17 27.44 93.5 39.85 100.67 52.25 107.83"/>
    <polygon class="st1" points="52.25 79.17 52.25 107.83 64.66 100.67 77.07 93.5 77.07 79.17 77.07 64.85 52.25 79.17"/>
    <polygon class="st0" points="27.44 64.85 52.25 79.17 77.07 64.85 64.66 57.68 52.25 50.52 39.85 57.68 27.44 64.85"/>
  </g>
  <g>
    <polygon class="st2" points="141.99 107.83 141.99 79.17 117.18 64.85 117.18 79.17 117.18 93.5 129.58 100.67 141.99 107.83"/>
    <polygon class="st3" points="141.99 79.17 141.99 107.83 154.4 100.67 166.8 93.5 166.8 79.17 166.8 64.85 141.99 79.17"/>
    <polygon class="st5" points="117.18 64.85 141.99 79.17 166.8 64.85 154.4 57.68 141.99 50.52 129.58 57.68 117.18 64.85"/>
  </g>
</svg>