<?xml version="1.0" encoding="UTF-8"?>
<svg id="Layer_1" xmlns="http://www.w3.org/2000/svg" version="1.1" viewBox="0 0 24 24">
  <!-- Generator: Adobe Illustrator 29.5.1, SVG Export Plug-In . SVG Version: 2.1.0 Build 141)  -->
  <defs>
    <style>
      .st0 {
        fill-rule: evenodd;
      }
    </style>
  </defs>
  <path d="M17.47,4.65l6.29,3.63v7.27s-6.3,3.64-6.3,3.64l-9.14-5.28-1.8,1.04-2.7-1.56v-3.11s2.7-1.56,2.7-1.56l2.7,1.56v2.08s8.24,4.76,8.24,4.76l4.5-2.6v-5.19s-4.5-2.6-4.5-2.6l-1.8,1.04-1.8-1.04,3.6-2.08Z"/>
  <path d="M15.67,9.84l1.8-1.04,2.7,1.56v3.11l-2.7,1.56-2.7-1.56v-2.08S6.53,6.64,6.53,6.64l-4.5,2.6v5.19s4.5,2.59,4.5,2.59l1.8-1.04,1.8,1.04-3.59,2.07L.23,15.47v-7.27s6.3-3.64,6.3-3.64l9.15,5.28Z"/>
  <g>
    <polygon class="st0" points="6.56 15.3 6.56 11.83 3.56 10.09 3.56 11.83 3.56 13.57 5.06 14.43 6.56 15.3"/>
    <polygon class="st0" points="6.56 11.83 6.56 15.3 8.07 14.43 9.57 13.57 9.57 11.83 9.57 10.09 6.56 11.83"/>
    <polygon class="st0" points="3.56 10.09 6.56 11.83 9.57 10.09 8.07 9.23 6.56 8.36 5.06 9.23 3.56 10.09"/>
  </g>
  <g>
    <polygon class="st0" points="17.43 15.3 17.43 11.83 14.43 10.09 14.43 11.83 14.43 13.57 15.93 14.43 17.43 15.3"/>
    <polygon class="st0" points="17.43 11.83 17.43 15.3 18.94 14.43 20.44 13.57 20.44 11.83 20.44 10.09 17.43 11.83"/>
    <polygon class="st0" points="14.43 10.09 17.43 11.83 20.44 10.09 18.94 9.23 17.43 8.36 15.93 9.23 14.43 10.09"/>
  </g>
</svg>