<?xml version="1.0" encoding="UTF-8"?>
<svg xmlns="http://www.w3.org/2000/svg" xmlns:xlink="http://www.w3.org/1999/xlink" viewBox="0 0 682.5 768">
  <defs>
    <style>
      .cls-1 {
        fill: url(#_무제_그라디언트_233-5);
      }

      .cls-2 {
        fill: url(#_무제_그라디언트_309-2);
        opacity: .3;
      }

      .cls-2, .cls-3 {
        mix-blend-mode: multiply;
      }

      .cls-4 {
        fill: url(#_무제_그라디언트_34);
      }

      .cls-5 {
        fill: url(#_무제_그라디언트_21);
      }

      .cls-6 {
        fill: url(#_무제_그라디언트_318-2);
      }

      .cls-7 {
        fill: url(#radial-gradient);
      }

      .cls-8 {
        fill: url(#radial-gradient-3);
      }

      .cls-9 {
        fill: url(#_무제_그라디언트_233);
      }

      .cls-10 {
        fill: url(#_무제_그라디언트_318);
      }

      .cls-11 {
        isolation: isolate;
      }

      .cls-12 {
        fill: url(#_무제_그라디언트_233-3);
      }

      .cls-13 {
        fill: url(#radial-gradient-2);
      }

      .cls-14 {
        fill: #fea421;
      }

      .cls-3 {
        fill: url(#_무제_그라디언트_322);
      }

      .cls-15 {
        opacity: .45;
      }

      .cls-16 {
        fill: #148f99;
      }

      .cls-17 {
        opacity: .25;
      }

      .cls-17, .cls-18 {
        fill: #85bc08;
      }

      .cls-18 {
        opacity: .4;
      }

      .cls-19 {
        fill: url(#_무제_그라디언트_34-2);
      }

      .cls-20 {
        fill: #0d8184;
      }

      .cls-21 {
        fill: url(#_무제_그라디언트_233-2);
      }

      .cls-22 {
        fill: url(#_무제_그라디언트_34-3);
      }

      .cls-23 {
        fill: url(#_무제_그라디언트_309);
      }

      .cls-24 {
        fill: url(#_무제_그라디언트_233-4);
      }

      .cls-25 {
        fill: #7abf8b;
      }
    </style>
    <linearGradient id="_무제_그라디언트_34" data-name="무제 그라디언트 34" x1="339.94" y1="994.63" x2="339.94" y2="-95.8" gradientTransform="translate(1.3 -.05)" gradientUnits="userSpaceOnUse">
      <stop offset="0" stop-color="#dbeffe"/>
      <stop offset=".83" stop-color="#65cbf8"/>
    </linearGradient>
    <linearGradient id="_무제_그라디언트_34-2" data-name="무제 그라디언트 34" x1="528.26" y1="195.31" x2="528.26" y2="305.51" gradientTransform="matrix(1,0,0,1,0,0)" xlink:href="#_무제_그라디언트_34"/>
    <linearGradient id="_무제_그라디언트_34-3" data-name="무제 그라디언트 34" x1="193.67" y1="92.55" x2="194.59" y2="209.56" gradientTransform="matrix(1,0,0,1,0,0)" xlink:href="#_무제_그라디언트_34"/>
    <linearGradient id="_무제_그라디언트_233" data-name="무제 그라디언트 233" x1="17.58" y1="618.34" x2="302.16" y2="665.01" gradientUnits="userSpaceOnUse">
      <stop offset="0" stop-color="#98d84f"/>
      <stop offset="1" stop-color="#46a218"/>
    </linearGradient>
    <radialGradient id="radial-gradient" cx="-2212.42" cy="2218.38" fx="-2212.42" fy="2218.38" r="33.5" gradientTransform="translate(2509.4 -1256.03) rotate(8.22)" gradientUnits="userSpaceOnUse">
      <stop offset=".27" stop-color="#009657"/>
      <stop offset=".73" stop-color="#008639"/>
      <stop offset="1" stop-color="#00802e"/>
    </radialGradient>
    <radialGradient id="radial-gradient-2" cx="-112.24" cy="594.74" fx="-112.24" fy="594.74" r="32.92" gradientTransform="translate(383.44 -9.23) rotate(3.78)" xlink:href="#radial-gradient"/>
    <linearGradient id="_무제_그라디언트_233-2" data-name="무제 그라디언트 233" x1="-62.83" y1="647.28" x2="585.65" y2="647.28" xlink:href="#_무제_그라디언트_233"/>
    <linearGradient id="_무제_그라디언트_233-3" data-name="무제 그라디언트 233" x1="36.95" y1="672.09" x2="37.24" y2="672.09" xlink:href="#_무제_그라디언트_233"/>
    <radialGradient id="_무제_그라디언트_318" data-name="무제 그라디언트 318" cx="65.25" cy="623.85" fx="65.25" fy="623.85" r="32.42" gradientUnits="userSpaceOnUse">
      <stop offset=".27" stop-color="#57af7a"/>
      <stop offset=".44" stop-color="#49a169"/>
      <stop offset=".8" stop-color="#30864b"/>
      <stop offset="1" stop-color="#277d40"/>
    </radialGradient>
    <radialGradient id="_무제_그라디언트_318-2" data-name="무제 그라디언트 318" cx="1090.31" cy="345.07" fx="1090.31" fy="345.07" r="33.67" gradientTransform="translate(-1045.12 600.91) rotate(-16.78)" xlink:href="#_무제_그라디언트_318"/>
    <linearGradient id="_무제_그라디언트_233-4" data-name="무제 그라디언트 233" x1="-5.79" y1="1358.79" x2="-5.79" y2="1280.42" gradientTransform="translate(927.59 -718) rotate(13.87) scale(1.04 1.06)" xlink:href="#_무제_그라디언트_233"/>
    <radialGradient id="radial-gradient-3" cx="-3352.22" cy="3611.85" fx="-3352.22" fy="3611.85" r="34.64" gradientTransform="translate(5555.55 782.69) rotate(48.34) scale(.98) skewX(-1.54)" xlink:href="#radial-gradient"/>
    <linearGradient id="_무제_그라디언트_233-5" data-name="무제 그라디언트 233" x1=".16" y1="1378.05" x2=".16" y2="1208.17" gradientTransform="translate(927.59 -718) rotate(13.87) scale(1.04 1.06)" xlink:href="#_무제_그라디언트_233"/>
    <linearGradient id="_무제_그라디언트_21" data-name="무제 그라디언트 21" x1="-.01" y1="700.76" x2="537.98" y2="700.76" gradientUnits="userSpaceOnUse">
      <stop offset="0" stop-color="#83d519"/>
      <stop offset=".9" stop-color="#c3ef00"/>
    </linearGradient>
    <linearGradient id="_무제_그라디언트_322" data-name="무제 그라디언트 322" x1="585.91" y1="799.11" x2="562.4" y2="715.98" gradientUnits="userSpaceOnUse">
      <stop offset="0" stop-color="#effafd"/>
      <stop offset="1" stop-color="#25c9d9"/>
    </linearGradient>
    <linearGradient id="_무제_그라디언트_309" data-name="무제 그라디언트 309" x1="453.54" y1="773.13" x2="657.47" y2="720.26" gradientUnits="userSpaceOnUse">
      <stop offset="0" stop-color="#efb647"/>
      <stop offset=".45" stop-color="#f9d175"/>
      <stop offset="1" stop-color="#e99e28"/>
    </linearGradient>
    <linearGradient id="_무제_그라디언트_309-2" data-name="무제 그라디언트 309" x1="466.88" y1="776.6" x2="740.42" y2="701.17" xlink:href="#_무제_그라디언트_309"/>
  </defs>
  <g class="cls-11">
    <g id="Layer_1" data-name="Layer 1">
      <rect class="cls-4" x="0" y="-.01" width="682.5" height="768.08"/>
      <path class="cls-19" d="M576.65,224.27c-2.7,0-5.27.48-7.62,1.36-2.56-7.06-9.99-12.16-18.77-12.16-1.88,0-3.7.24-5.42.68-1.2-8.67-9.5-15.39-19.57-15.39-9.26,0-17.03,5.68-19.15,13.34-2.95-1.56-6.38-2.45-10.06-2.45-10.89,0-19.72,7.86-19.72,17.56,0,1.39.19,2.73.53,4.02-9.46,1.29-16.71,8.57-16.71,17.36,0,9.7,8.83,17.56,19.72,17.56,4.33,0,8.33-1.24,11.58-3.35,1.78,8.07,9.77,14.15,19.35,14.15,8.04,0,14.95-4.29,18.02-10.43,3.57,4.53,9.47,7.49,16.16,7.49,10.89,0,19.72-7.86,19.72-17.56,0-.22,0-.44-.02-.65,3.32,2.25,7.46,3.59,11.95,3.59,10.89,0,19.72-7.86,19.72-17.56s-8.83-17.56-19.72-17.56Z"/>
      <path class="cls-22" d="M242.95,125.97c-2.73,0-5.32.49-7.69,1.37-2.58-7.13-10.09-12.28-18.95-12.28-1.9,0-3.73.24-5.47.68-1.21-8.76-9.59-15.54-19.76-15.54-9.35,0-17.19,5.74-19.33,13.47-2.97-1.57-6.44-2.48-10.15-2.48-11,0-19.92,7.94-19.92,17.73,0,1.4.19,2.76.53,4.06-9.56,1.3-16.87,8.65-16.87,17.53,0,9.79,8.92,17.73,19.92,17.73,4.37,0,8.41-1.26,11.69-3.38,1.8,8.15,9.86,14.29,19.54,14.29,8.12,0,15.1-4.33,18.2-10.53,3.6,4.57,9.56,7.57,16.32,7.57,11,0,19.92-7.94,19.92-17.73,0-.22,0-.44-.02-.66,3.35,2.27,7.53,3.63,12.06,3.63,11,0,19.92-7.94,19.92-17.73s-8.92-17.73-19.92-17.73Z"/>
      <path class="cls-25" d="M325.61,650.95l-138.5,3.3c1.26,1.13,2.41,2.15,3.44,3.08.55.49,1.06.95,1.54,1.38,3.12,2.79,4.82,4.29,4.82,4.29l-73.8-.72c-22.36,28.74-38.24,48.93-38.24,48.93l523.31-12.46-247.11,5.88c-15.51-18.38-29.11-37.44-35.46-53.68Z"/>
      <path class="cls-25" d="M156.74,626.82c2.41,2.19,4.73,4.3,6.97,6.34-2.24-2.03-4.57-4.15-6.97-6.34Z"/>
      <path class="cls-25" d="M183.65,651.14c-1.52-1.37-3.17-2.84-4.91-4.42,1.75,1.57,3.39,3.05,4.91,4.42Z"/>
      <path class="cls-25" d="M167.01,636.13c3.22,2.92,6.24,5.65,9.02,8.15-2.78-2.51-5.8-5.23-9.02-8.15Z"/>
      <g class="cls-15">
        <path class="cls-16" d="M682.97,619.87c-47.16-50.86-99.1-105.67-106.74-114.02-13.04-14.27-26.86,2.65-26.86,2.65l-83.55,64.56-9.92,96.9,226.82,30.04.26-80.12Z"/>
        <path class="cls-20" d="M521.69,538.78s43.3,54.74,50.14,61.36c6.84,6.62,16.76,2.05,16.76,2.05-5.36-15.73-25.74-47.82-29.44-69.67-.99-5.84-1.46-28.16-1.42-30.16-5.38,1.98-8.57,5.96-8.57,5.96l-33.05,25.54c2.73,2.56,5.58,4.93,5.58,4.93Z"/>
        <path class="cls-16" d="M74.63,567.61l96.18-92.23s11.15-13.91,26.86-2.65c15.71,11.26,196.37,192.58,196.37,192.58l-319.41,5.3v-103Z"/>
        <path class="cls-16" d="M370.79,566.62l72.14-82.24s9.33-11.63,22.47-2.22c13.14,9.41,164.22,161.06,164.22,161.06l-267.13,4.43,8.3-81.04Z"/>
        <path class="cls-20" d="M444.1,483.08l-49.82,56.79,93.3,50.43s5.72-3.48-.78-11.93c-13.38-17.41-38.23-36.07,4.44-25.18,10.55,2.69,13.82-2.32,7.67-7.12-1.57-1.22-4.62-3.06-7.07-4.08-13.34-5.56-47.92-19.85-51.62-22.21-4.14-2.65-3.11-11.55,3.37-20.26,4.43-5.96,4.01-11.13,3.3-13.79-.31-1.16-1.35-2.13-2.78-2.66Z"/>
        <path class="cls-16" d="M137.72,568.2l159.8-147.65s9.33-11.63,22.47-2.22c13.14,9.41,219.95,226.38,219.95,226.38l-335.37,16.19-66.85-92.7Z"/>
        <path class="cls-20" d="M171.15,475.03l-55.65,53.43,80.5,62.04s5.72-3.48-.78-11.93c-13.38-17.41-30.04-39.84,11.74-26.49,11.64,3.72,12.8-2.02,9.05-6.73-1.21-1.51-3.48-3.41-5.09-4.68-7.87-6.24-39.97-26.57-43.66-28.94-4.14-2.65-3.11-11.55,3.37-20.26,4.43-5.96,4.01-11.13,3.3-13.79-.31-1.16-1.35-2.13-2.78-2.66Z"/>
        <path class="cls-20" d="M300.08,418.14l-82.14,73.95,109.65,104.38s5.72-3.48-.78-11.93c-13.38-17.41-56.3-71.25-14.51-57.89,11.64,3.72,15.37-2.15,10.29-6.54-1.5-1.29-4.92-3.78-6.84-4.64-24.51-10.96-39.86-51.26-16.18-80.88,4.66-5.82,4.01-11.13,3.3-13.79-.31-1.16-1.35-2.13-2.78-2.66Z"/>
        <path class="cls-16" d="M83.56,516.44L.06,583.66l-.3,93.12,258.97-29.79s-132.59-121.95-148.31-133.21-26.86,2.65-26.86,2.65Z"/>
      </g>
      <path class="cls-9" d="M274.6,595.03c-3.27.23-6.34,1.31-9.01,3.01-2.16-8.57-9.81-14.51-18.83-13.87-6.73.48-12.59,4.51-15.92,10.21-.04-.45-.08-.9-.14-1.35-2.11-16.02-24.5-23.08-39.59-19.73-24.03,5.33-30.07,27.61-26.52,40.98-3.98-7.17-11.92-11.42-20.39-10.07-8.4,1.33-14.9,7.78-16.93,15.81-1.05-9.95-8.42-17.69-18.58-18.39-8.57-.59-16.86,3.96-21.86,11.14-.14-.31-.28-.61-.43-.91-5.97-11.63-25.21-21.04-43.43-12.05-19.58,9.66-21.18,32.02-12.73,42.81-6.41.92-12.59,3.93-17.04,8.84-2.72,3.01-3.88,4.36-4.7,7.79,1.11-7.44-3.78-11.68-8.12-13.57l-.15,46,46.73-7.27s94.89-19.02,95.45-19.34c.56-.31,16.59-21.57,16.59-21.57l98.78-18.7c3.19,6.44,9.82,10.56,17.42,10.02,10.57-.75,19.01-10.27,18.85-21.26-.16-10.99-8.87-19.28-19.44-18.53Z"/>
      <path class="cls-7" d="M23.61,635.18c-.47.14-2.3.93-3.77,3.26-1.15,1.77-.99,3.36-.81,4.08-.78.91-1.61,1.79-2.46,2.62-.86-2.07-1.62-4.16-2.26-6.28.73-.86,1.44-1.76,2.12-2.67,1.24.37,3.02-.7,3.94-2.36,1.01-1.76.64-4.6.27-4.65-.37-.07-2.3.47-3.78,2.82-1.12,1.73-.94,3.14-.76,3.76-.63.85-1.29,1.69-1.97,2.49-.71-2.41-1.27-4.85-1.7-7.31.66-.57,1.32-1.2,1.96-1.86,1.01.5,2.58-.13,3.43-1.42.96-1.37.57-3.76.23-3.78-.34-.04-1.92.26-3.17,1.88-.95,1.22-.87,2.38-.75,2.92-.59.61-1.19,1.19-1.79,1.72-.29-1.75-.5-3.51-.64-5.27,1.38-.63,2.15-2.66,2.06-4.56-.14-1.99-1.7-4.61-2.1-4.62-.38,0-2.54,1.45-2.54,4.97.04,2.58,1.3,3.7,1.96,4.1.15,1.96.39,3.92.72,5.86-.69-.44-1.36-.91-2.01-1.39.34-1.08-.35-2.45-1.3-3.26-1.04-.76-2.79-1.29-3.09-1.36-.37-.08-1.16,2.24.87,4.06,1.41,1.26,2.62,1.05,3.16.87.77.57,1.57,1.13,2.39,1.64.03.02.06.03.09.03.42,2.36.97,4.7,1.65,7.01-1.22-.31-2.41-.73-3.54-1.25.03-1.32-1.25-2.8-2.58-3.79-1.43-.91-3.87-1.98-4.18-1.85-.26.08-1,2.74,2,5.16,2.22,1.59,3.76,1.2,4.41.89,1.22.57,2.51,1.03,3.83,1.36.07.02.15,0,.21-.04.68,2.23,1.47,4.44,2.39,6.61-1.19-.08-2.43-.26-3.7-.51-.22-1.49-1.78-2.77-3.31-3.29-1.6-.4-4.24-.39-4.6-.19-.12.15-.27.85.12,1.83.38.96,1.37,2.14,3.06,2.79,2.51.89,3.9-.03,4.46-.57,1.34.27,2.67.46,3.93.55.1,0,.19-.03.25-.1.21.48.42.96.64,1.44.07.15.25.22.41.15.15-.07.22-.25.15-.41-.23-.51-.46-1.02-.68-1.54.89-.85,1.76-1.76,2.57-2.71,1.4.56,3.54-.5,4.6-2.49.55-1.03.7-2.47.5-3.57-.19-1.12-.69-1.82-.89-1.8Z"/>
      <path class="cls-13" d="M253.83,587.06c-.45.18-2.19,1.09-3.44,3.48-.99,1.82-.71,3.37-.48,4.06-.7.96-1.44,1.88-2.21,2.75-1-1.96-1.9-3.95-2.69-5.98.65-.9,1.28-1.83,1.87-2.78,1.25.27,2.9-.92,3.68-2.61.86-1.8.27-4.56-.09-4.58-.37-.04-2.22.64-3.49,3.05-.96,1.78-.68,3.14-.45,3.75-.56.88-1.14,1.75-1.74,2.59-.88-2.31-1.62-4.65-2.22-7.04.6-.61,1.2-1.28,1.78-1.97,1.03.41,2.52-.33,3.25-1.65.83-1.42.28-3.73-.06-3.73-.34-.01-1.87.4-2.96,2.09-.84,1.26-.67,2.4-.51,2.92-.53.64-1.07,1.25-1.63,1.83-.41-1.69-.76-3.4-1.03-5.12,1.31-.72,1.91-2.77,1.67-4.63-.29-1.94-2.01-4.39-2.41-4.36-.37.03-2.37,1.62-2.11,5.07.24,2.53,1.56,3.52,2.23,3.87.3,1.91.68,3.81,1.15,5.69-.71-.38-1.41-.79-2.08-1.21.26-1.08-.53-2.38-1.52-3.09-1.08-.67-2.83-1.05-3.13-1.1-.37-.05-.96,2.28,1.16,3.91,1.48,1.13,2.65.83,3.16.61.79.5,1.62.98,2.47,1.43.03.02.06.02.09.03.59,2.28,1.31,4.53,2.16,6.75-1.22-.21-2.41-.53-3.56-.95-.07-1.29-1.43-2.65-2.82-3.51-1.47-.79-3.94-1.64-4.24-1.49-.25.1-.77,2.76,2.35,4.9,2.3,1.39,3.77.89,4.38.54,1.24.47,2.54.82,3.86,1.04.07.01.14,0,.2-.05.83,2.14,1.78,4.24,2.84,6.3-1.17,0-2.41-.07-3.66-.22-.32-1.44-1.95-2.58-3.5-2.97-1.6-.27-4.19-.06-4.52.16-.1.16-.2.85.25,1.78.44.91,1.51,1.99,3.21,2.5,2.52.68,3.82-.33,4.33-.89,1.34.17,2.65.25,3.89.24.1,0,.18-.05.24-.12.24.46.48.91.73,1.36.08.15.27.2.41.12.15-.08.2-.27.12-.41-.27-.48-.53-.97-.78-1.45.81-.9,1.59-1.86,2.31-2.85,1.42.45,3.43-.76,4.31-2.79.46-1.05.5-2.47.22-3.54-.27-1.08-.82-1.73-1.01-1.7Z"/>
      <path class="cls-21" d="M271.47,608.97c-2.87.2-5.56,1.15-7.91,2.64-1.9-7.52-8.61-12.73-16.51-12.16-5.9.42-11.04,3.96-13.97,8.96-.03-.39-.07-.79-.13-1.18-1.85-14.06-21.49-20.24-34.72-17.3-21.08,4.68-26.37,24.21-23.26,35.94-3.49-6.28-10.46-10.01-17.88-8.83-7.37,1.17-13.07,6.83-14.85,13.86-.92-8.73-7.38-15.51-16.3-16.13-7.51-.52-14.79,3.48-19.18,9.77-.12-.27-.24-.54-.38-.8-5.24-10.2-22.11-18.46-38.09-10.57-17.17,8.47-18.58,28.09-11.16,37.55-5.62.8-11.04,3.45-14.94,7.76-2.39,2.64-3.4,3.82-4.12,6.83,1.12-7.53-4.76-11.33-8.82-12.53-4.42-1.31-12.95-.27-14.96,5.61-1.8-4.98-7.49-8.89-13.91-9.67l-.18,56.67,29.34-11.44,42.28-6.57s83.23-16.69,83.72-16.96c.49-.27,14.55-18.92,14.55-18.92l86.64-16.4c2.8,5.65,8.62,9.27,15.27,8.79,9.27-.66,16.67-9.01,16.53-18.65-.14-9.64-7.78-16.91-17.05-16.25Z"/>
      <path class="cls-12" d="M36.98,672.34c.04-.17.07-.33.1-.49,0,.14.02.28.03.42l-.13.08Z"/>
      <path class="cls-10" d="M85.17,645.95c-.46.18-2.21,1.1-3.48,3.52-1,1.84-.72,3.4-.49,4.1-.7.97-1.45,1.9-2.24,2.78-1.01-1.98-1.92-3.99-2.72-6.04.65-.91,1.29-1.85,1.89-2.8,1.26.27,2.93-.92,3.71-2.64.86-1.82.28-4.6-.09-4.63-.37-.04-2.24.64-3.53,3.08-.97,1.8-.69,3.18-.46,3.78-.56.89-1.15,1.77-1.75,2.62-.88-2.33-1.63-4.7-2.24-7.11.61-.62,1.21-1.29,1.8-1.99,1.04.42,2.54-.33,3.28-1.67.84-1.43.28-3.77-.06-3.76-.34-.01-1.88.4-2.99,2.11-.85,1.28-.68,2.42-.52,2.95-.53.65-1.09,1.27-1.64,1.84-.42-1.71-.77-3.43-1.04-5.17,1.32-.73,1.93-2.79,1.69-4.67-.29-1.96-2.03-4.43-2.44-4.41-.38.03-2.4,1.63-2.13,5.12.24,2.55,1.57,3.56,2.25,3.91.3,1.93.69,3.85,1.16,5.74-.72-.39-1.42-.8-2.1-1.22.26-1.1-.53-2.4-1.54-3.12-1.09-.67-2.86-1.06-3.16-1.11-.37-.05-.97,2.3,1.17,3.95,1.5,1.14,2.67.84,3.19.61.8.51,1.64.99,2.49,1.44.03.02.06.02.09.03.6,2.3,1.33,4.58,2.18,6.81-1.23-.21-2.44-.53-3.6-.96-.07-1.31-1.45-2.68-2.85-3.55-1.48-.8-3.98-1.66-4.28-1.51-.25.1-.78,2.79,2.38,4.95,2.32,1.41,3.81.89,4.43.54,1.25.47,2.56.83,3.9,1.05.07.01.15,0,.2-.05.84,2.16,1.8,4.28,2.87,6.36-1.19,0-2.43-.07-3.7-.22-.33-1.46-1.97-2.6-3.53-3-1.61-.28-4.23-.06-4.56.17-.1.16-.2.86.26,1.8.45.92,1.52,2.01,3.25,2.53,2.55.68,3.86-.33,4.37-.9,1.35.17,2.67.25,3.93.24.1,0,.19-.05.24-.12.24.46.49.92.74,1.38.08.15.27.2.42.12.15-.08.2-.27.12-.42-.27-.49-.53-.98-.79-1.47.82-.91,1.6-1.88,2.34-2.88,1.43.45,3.47-.76,4.36-2.82.47-1.06.5-2.5.22-3.57-.27-1.09-.83-1.75-1.02-1.72Z"/>
      <path class="cls-6" d="M110.51,647.2c-.39-.02-1.95.08-3.64,1.41-1.32,1-1.62,2.21-1.68,2.8-.82.47-1.66.9-2.51,1.28-.09-1.75-.09-3.5,0-5.23.76-.44,1.53-.91,2.27-1.41.82.6,2.41.28,3.53-.7,1.21-1.03,1.69-3.22,1.43-3.36-.26-.15-1.82-.26-3.54,1.08-1.28.98-1.52,2.06-1.55,2.58-.69.46-1.4.9-2.11,1.32.12-1.96.34-3.91.68-5.84.64-.25,1.29-.54,1.94-.85.62.64,1.94.58,2.9-.14,1.07-.76,1.42-2.62,1.17-2.73-.24-.12-1.49-.32-2.83.55-1.02.64-1.27,1.53-1.33,1.95-.59.29-1.19.56-1.78.8.25-1.36.56-2.72.92-4.06,1.19-.1,2.29-1.39,2.73-2.82.43-1.51-.03-3.85-.33-3.96-.28-.1-2.26.4-3.19,3-.65,1.91-.02,3.07.36,3.54-.41,1.49-.75,2.99-1.02,4.51-.39-.51-.76-1.03-1.12-1.56.54-.71.39-1.9-.1-2.75-.57-.84-1.72-1.69-1.92-1.82-.25-.15-1.44,1.34-.43,3.22.71,1.3,1.65,1.47,2.1,1.47.41.62.86,1.25,1.33,1.85.02.02.04.04.06.05-.31,1.85-.53,3.72-.64,5.61-.82-.55-1.58-1.17-2.28-1.86.37-.96-.18-2.4-.9-3.48-.81-1.05-2.33-2.48-2.59-2.47-.21,0-1.46,1.75.11,4.33,1.22,1.76,2.46,1.88,3.01,1.82.75.75,1.58,1.42,2.47,2.02.05.03.11.04.16.03-.09,1.82-.09,3.66.01,5.51-.86-.38-1.73-.84-2.59-1.36.24-1.16-.58-2.51-1.57-3.31-1.07-.72-3.03-1.41-3.34-1.36-.13.08-.42.55-.4,1.38.02.81.45,1.94,1.52,2.87,1.61,1.32,2.88,1.01,3.44.76.92.56,1.84,1.04,2.75,1.45.07.03.15.02.21-.01.03.41.05.82.09,1.23.01.13.13.23.26.22.13-.01.23-.13.22-.26-.04-.44-.07-.87-.09-1.31.88-.39,1.76-.83,2.61-1.32.88.79,2.74.57,4.05-.62.68-.61,1.17-1.64,1.32-2.5.16-.88-.03-1.52-.18-1.57Z"/>
      <g>
        <path class="cls-24" d="M636.79,655.06c4.06-2.18,7.22-5.95,8.43-10.71,2.28-8.97-3.27-18.02-12.39-20.21-2.55-.61-5.12-.62-7.54-.12.37-6.54-4.01-12.6-10.71-14.21-.81-.19-1.62-.31-2.43-.37-1.02-7.82-6.8-14.57-15.05-16.55-9.81-2.36-19.73,2.83-23.44,11.79-1.32-1.05-2.89-1.83-4.65-2.26-6.45-1.55-12.98,2.34-14.59,8.69-.53,2.09-.46,4.18.1,6.1-7.34-1.36-14.58,3.16-16.41,10.38-.34,1.35-.47,2.71-.41,4.03-3.4-.13-6.56,2.11-7.41,5.49-.37,1.47-.26,2.95.25,4.26-.79-.49-1.68-.87-2.64-1.11-4.75-1.14-9.56,1.72-10.75,6.4-.45,1.79-.31,3.59.31,5.19-.07-.02-.13-.04-.2-.06-1.75-.42-3.52.63-3.96,2.36s.63,3.46,2.38,3.88l113.88,27.36.09-.37c7.93,1.18,15.64-3.78,17.62-11.59,2.02-7.96-2.64-15.98-10.48-18.38Z"/>
        <path class="cls-8" d="M639.11,640.47c-.47-.2-2.43-.81-5.15,0-2.1.59-3.05,1.9-3.4,2.58-1.23.18-2.47.31-3.7.37.72-2.14,1.55-4.23,2.48-6.27,1.15-.18,2.31-.39,3.46-.63.72,1.1,2.83,1.45,4.67.8,1.98-.67,3.61-3.08,3.36-3.36-.24-.3-2.12-1.16-4.87-.35-2.05.58-2.85,1.77-3.14,2.37-1.07.23-2.15.43-3.23.6,1.08-2.3,2.29-4.53,3.62-6.68.9,0,1.84-.05,2.79-.13.45,1.05,2.1,1.6,3.64,1.18,1.68-.41,3-2.49,2.74-2.73-.24-.26-1.68-1.07-3.75-.65-1.57.3-2.29,1.24-2.56,1.73-.87.08-1.73.12-2.57.13.96-1.52,1.98-3,3.07-4.44,1.51.43,3.48-.6,4.7-2.11,1.24-1.61,1.79-4.62,1.48-4.9-.3-.25-2.97-.57-5.35,2.11-1.71,1.99-1.48,3.67-1.25,4.41-1.21,1.6-2.35,3.24-3.4,4.93-.24-.79-.45-1.59-.63-2.38,1-.59,1.39-2.1,1.19-3.34-.3-1.27-1.31-2.82-1.49-3.07-.24-.3-2.42.94-2.07,3.66.25,1.89,1.33,2.53,1.88,2.74.21.94.46,1.89.76,2.83.01.03.03.06.05.08-1.27,2.08-2.42,4.22-3.45,6.43-.74-1.04-1.39-2.14-1.92-3.28.92-.98.92-2.96.54-4.58-.5-1.64-1.69-4.05-2.02-4.16-.26-.11-2.64,1.42-1.93,5.24.66,2.68,2.13,3.39,2.84,3.58.57,1.24,1.26,2.44,2.07,3.56.05.06.11.1.19.11-.98,2.14-1.85,4.35-2.61,6.6-.88-.85-1.73-1.8-2.55-2.83.84-1.28.48-3.28-.36-4.69-.97-1.36-3.05-3.09-3.47-3.17-.19.04-.78.47-1.15,1.47-.36.98-.37,2.53.5,4.14,1.36,2.33,3.07,2.55,3.87,2.51.86,1.09,1.77,2.11,2.7,3.01.07.07.17.1.27.09-.16.5-.32,1.01-.48,1.52-.05.16.05.34.22.38.17.05.35-.05.39-.21.16-.54.33-1.08.51-1.62,1.27-.06,2.56-.18,3.84-.37.71,1.35,3.1,1.96,5.28,1.13,1.13-.42,2.22-1.42,2.81-2.39.61-.98.69-1.84.53-1.96Z"/>
        <path class="cls-1" d="M637.95,676.29c4.06-2.18,7.22-5.95,8.43-10.71,2.28-8.97-3.27-18.02-12.39-20.21-2.55-.61-5.12-.62-7.54-.12.37-6.54-4.01-12.6-10.71-14.21-.81-.19-1.62-.31-2.43-.37-1.02-7.82-6.8-14.57-15.05-16.55-9.81-2.36-19.73,2.83-23.44,11.79-1.32-1.05-2.89-1.83-4.65-2.26-6.45-1.55-12.98,2.34-14.59,8.69-.53,2.09-.46,4.18.1,6.1-7.34-1.36-14.58,3.16-16.41,10.38-.34,1.35-.47,2.71-.41,4.03-3.4-.13-6.56,2.11-7.41,5.49-.37,1.47-.26,2.95.25,4.26-.79-.49-1.68-.87-2.64-1.11-4.75-1.14-9.56,1.72-10.75,6.4-.45,1.79-.31,3.59.31,5.19-.07-.02-.13-.04-.2-.06-1.75-.42-3.52.63-3.96,2.36-.44,1.72.63,3.46,2.38,3.88l113.88,27.36.09-.37c7.93,1.18,15.64-3.78,17.62-11.59,2.02-7.96-2.64-15.98-10.48-18.38Z"/>
      </g>
      <path class="cls-5" d="M682.71,699.99c-63.5-29.41-166.33-58.71-328.93-65.52-156.81-6.57-273.01,19.54-353.52,50.37L-.01,768.07l453.33-.07c14.83-17.26,76.39-18.66,102.13-19.57,29.51-1.04,67.86-5.4,72.15-21.86,3.18-12.19,20.88-20.05,55.1-23.61v-2.96Z"/>
      <path class="cls-14" d="M349.88,701.02c-69.2,7.39-122.51,38.76-155.78,67.04h141.34c16.6-20.08,39.43-34.38,58.46-42.38,27.82-11.69,43.27-23.59,34.94-38.81-8.34-15.21-29.32-13.66-39.71-23.08-10.4-9.42,17.42-16.56,28-19.97,5.97-1.93,9.27-3.4,10.56-4.42-6.25-.76-13.18-1.11-19.69-1.69-.92,3.22-5.7,3.26-8.28,3.36-1.92.07-3.83.19-5.74.41-11.04,1.26-40.53,5.66-39.92,16.77.75,13.66,26.04,12.42,29.04,24.84,3,12.42-33.22,17.94-33.22,17.94Z"/>
      <g>
        <ellipse class="cls-18" cx="27.77" cy="709.37" rx="9.4" ry="5.65" transform="translate(-327.41 94.7) rotate(-27.78)"/>
        <ellipse class="cls-18" cx="48.99" cy="699.42" rx="6.65" ry="4" transform="translate(-320.33 103.44) rotate(-27.78)"/>
      </g>
      <ellipse class="cls-17" cx="587.19" cy="690.48" rx="4.28" ry="7.25" transform="translate(-201.86 1136.54) rotate(-79.1)"/>
      <ellipse class="cls-17" cx="607.39" cy="695.07" rx="4.28" ry="7.25" transform="translate(-189.97 1160.1) rotate(-79.1)"/>
      <g>
        <path class="cls-3" d="M682.12,768l.21-64.94c-34.02,3.57-51.63,11.43-54.8,23.58-4.3,16.47-42.64,20.82-72.15,21.86-25.7.91-87.1,1.58-102.06,18.76l228.81.73Z"/>
        <path class="cls-23" d="M682.7,703.02c-34.29,3.55-52.02,11.43-55.21,23.62-4.3,16.47-42.64,20.82-72.15,21.86-25.7.91-87.1,1.58-102.06,18.76l5.91.02c21.14-12.59,73.05-13.22,96.15-14.04,29.51-1.04,67.86-5.4,72.15-21.86,3.18-12.2,20.91-20.07,55.19-23.62l.02-4.74Z"/>
        <path class="cls-2" d="M682.61,707.73c-34.06,3.57-51.69,11.43-54.86,23.59-4.3,16.47-42.64,20.82-72.15,21.86-23.14.82-75.2,1.45-96.26,14.1l10.68.03c24.6-8.13,65.73-8.7,85.58-9.4,29.51-1.04,67.86-5.4,72.15-21.86,3.17-12.16,20.79-20.02,54.85-23.59l.02-4.74Z"/>
      </g>
    </g>
  </g>
</svg>