<?xml version="1.0" encoding="UTF-8"?>
<svg id="site_logo_light" data-name="site logo_light" xmlns="http://www.w3.org/2000/svg" viewBox="0 0 500 500">
  <defs>
    <style>
      .cls-1 {
        font-family: Impact, Impact;
        font-size: 82.16px;
        letter-spacing: .03em;
      }
    </style>
  </defs>
  <path d="M103.03,308.34c2.4-5.87,4.85-11.51,7-17.26,1.93-5.16,3.02-10.55,3.13-16.09,.03-1.73-.19-1.89-1.9-1.6-1.29,.22-2.57,.51-3.87,.6-5.57,.38-11.11,.18-16.61-.92-7.03-1.41-13.75-3.61-19.63-7.88-2.31-1.68-4.33-3.65-6.21-6.39,1.11,.77,1.81,1.3,2.56,1.76,7.58,4.69,15.68,8.1,24.4,10.01,5.74,1.26,11.49,2.27,17.44,1.64,1.74-.19,1.97-1.05,2.19-2.35,.52-3.15,1.12-3.82,4.22-4.34,2.94-.5,5.9-.82,8.85-1.28,4.95-.79,8.66-3.2,10.5-8.08,1.45-3.85,1.82-7.82,1.69-11.9-.1-2.92-1.27-5.29-3.6-7-1.13-.83-2.41-1.49-3.7-2.06-5.07-2.23-10.17-4.39-15.25-6.58-.23-.1-.41-.29-.74-.54,1.89-.15,3.57-.25,5.23-.43,4.16-.46,8.37-.93,12.09-3,1.63-.91,3.14-2.27,4.3-3.74,1.09-1.38,.27-2.83-1.51-2.99-1.41-.13-2.85-.15-4.25,.04-5.25,.73-10.47,1.52-15.81,.91-1.29-.15-1.89-.52-2.32-1.74-2.44-6.94-4.97-13.85-7.47-20.78-1.03-2.84-3-4.59-6.05-4.67-1.85-.05-3.82,.05-5.55,.61-4.56,1.48-9.01,3.28-13.53,4.89-2.7,.97-5.51,1.65-8.13,2.76-2.64,1.12-4.37,3.18-4.73,6.18-.26,2.1-.55,4.2-.84,6.46,7.71-.79,15.12-.04,22.44,1.81,7.03,1.78,19.68,6.08,21.24,7.38-1.07-.23-1.94-.39-2.79-.6-10.33-2.61-20.53-5.74-31.24-6.56-7.12-.55-14.15-.16-20.96,2.12-3.95,1.32-7.63,3.2-10.39,6.5-3.62,4.32-2.69,9.1,2.32,11.75,2.64,1.39,5.48,2.01,8.43,2.15,4.03,.2,8.05,.17,11.66-.57-.86-2.44-1.98-4.76-2.47-7.21-.68-3.38,1.43-5.9,4.75-6.25,3.91-.41,9.51,4.2,9.87,8.15,.02,.22-.05,.45-.1,.91-2.12-2.83-4.57-4.78-7.78-5.61-2.24-.58-3.73,.57-3.77,2.89-.05,3.46,1.56,6,4.46,7.78,.32,.2,.64,.41,1.1,.7q-2.59,.55-3.83,2.78c-2.04,3.71-4.09,7.41-6.07,11.02-1.13,0-2.51-.43-3.12,.08-1.73,1.43-2.49,.19-3.46-.8-.44-.45-.87-.91-1.34-1.33-3.64-3.26-7.84-4.34-12.65-3.32,1.83,6.3,5.85,9.9,12.22,10.74-.08-.05,.13,1.03,.31,1.67,12.3,44.6,49.28,49.63,49.28,49.63Z"/>
  <text class="cls-1" transform="translate(157.52 275.32) scale(.81 1)"><tspan x="0" y="0">BaraStack</tspan></text>
</svg>