<?xml version="1.0" encoding="UTF-8"?>
<svg xmlns="http://www.w3.org/2000/svg" xmlns:xlink="http://www.w3.org/1999/xlink" viewBox="0 0 683.75 625.02">
  <defs>
    <style>
      .cls-1 {
        fill: #e8c26b;
      }

      .cls-1, .cls-2, .cls-3, .cls-4, .cls-5, .cls-6, .cls-7 {
        mix-blend-mode: multiply;
      }

      .cls-1, .cls-8 {
        opacity: .4;
      }

      .cls-2 {
        opacity: .5;
      }

      .cls-2, .cls-9, .cls-10 {
        fill: #d2cdce;
      }

      .cls-11, .cls-12, .cls-6 {
        fill: #7f5353;
      }

      .cls-11, .cls-3, .cls-13, .cls-10, .cls-6, .cls-7 {
        opacity: .3;
      }

      .cls-11, .cls-13, .cls-10 {
        mix-blend-mode: screen;
      }

      .cls-14 {
        fill: url(#linear-gradient-2);
      }

      .cls-3 {
        fill: url(#_무제_그라디언트_309-2);
      }

      .cls-15 {
        fill: #fff;
      }

      .cls-16 {
        fill: url(#_무제_그라디언트_34);
      }

      .cls-17 {
        fill: #344582;
      }

      .cls-18 {
        fill: #634956;
      }

      .cls-4 {
        fill: #9db42e;
      }

      .cls-4, .cls-19 {
        opacity: .25;
      }

      .cls-20 {
        fill: #6e6d78;
      }

      .cls-21 {
        fill: url(#_무제_그라디언트_21);
      }

      .cls-22 {
        fill: url(#radial-gradient);
      }

      .cls-13, .cls-23 {
        fill: #e95e57;
      }

      .cls-24 {
        fill: url(#_무제_그라디언트_233);
      }

      .cls-25 {
        isolation: isolate;
      }

      .cls-26 {
        fill: url(#_무제_그라디언트_233-3);
      }

      .cls-27 {
        fill: #3e99de;
      }

      .cls-28 {
        fill: #fea421;
      }

      .cls-29 {
        fill: #efefef;
      }

      .cls-5 {
        fill: url(#_무제_그라디언트_322);
      }

      .cls-19, .cls-8 {
        fill: #85bc08;
      }

      .cls-30 {
        fill: url(#_무제_그라디언트_34-2);
      }

      .cls-31 {
        opacity: .1;
      }

      .cls-32 {
        fill: url(#_무제_그라디언트_233-2);
      }

      .cls-33 {
        fill: #2f5a98;
      }

      .cls-34 {
        fill: url(#_무제_그라디언트_34-3);
      }

      .cls-35 {
        fill: url(#linear-gradient);
      }

      .cls-36 {
        fill: #e9574f;
      }

      .cls-37 {
        fill: #696762;
      }

      .cls-38 {
        fill: #3f3f42;
      }

      .cls-39 {
        fill: url(#_무제_그라디언트_309);
      }

      .cls-40 {
        fill: #e5b145;
      }

      .cls-41 {
        fill: url(#_무제_그라디언트_233-4);
      }
    </style>
    <linearGradient id="_무제_그라디언트_34" data-name="무제 그라디언트 34" x1="341.96" y1="809.34" x2="341.96" y2="-77.99" gradientUnits="userSpaceOnUse">
      <stop offset="0" stop-color="#dbeffe"/>
      <stop offset=".83" stop-color="#65cbf8"/>
    </linearGradient>
    <linearGradient id="_무제_그라디언트_34-2" data-name="무제 그라디언트 34" x1="512.91" y1="168" x2="512.91" y2="278.2" xlink:href="#_무제_그라디언트_34"/>
    <linearGradient id="_무제_그라디언트_34-3" data-name="무제 그라디언트 34" x1="203.28" y1="81.05" x2="204.2" y2="198.06" xlink:href="#_무제_그라디언트_34"/>
    <linearGradient id="_무제_그라디언트_233" data-name="무제 그라디언트 233" x1="-203.56" y1="1290.11" x2="-203.56" y2="1211.73" gradientTransform="translate(1111.36 -731.88) rotate(13.87) scale(1.04 1.06)" gradientUnits="userSpaceOnUse">
      <stop offset="0" stop-color="#98d84f"/>
      <stop offset="1" stop-color="#46a218"/>
    </linearGradient>
    <radialGradient id="radial-gradient" cx="-4025" cy="3745.97" fx="-4025" fy="3745.97" r="34.64" gradientTransform="translate(6097.96 1058.5) rotate(48.34) scale(.98) skewX(-1.54)" gradientUnits="userSpaceOnUse">
      <stop offset=".27" stop-color="#009657"/>
      <stop offset=".73" stop-color="#008639"/>
      <stop offset="1" stop-color="#00802e"/>
    </radialGradient>
    <linearGradient id="_무제_그라디언트_233-2" data-name="무제 그라디언트 233" x1="-197.61" y1="1309.36" x2="-197.61" y2="1139.49" xlink:href="#_무제_그라디언트_233"/>
    <linearGradient id="_무제_그라디언트_233-3" data-name="무제 그라디언트 233" x1="-481.47" y1="1331.4" x2="-481.47" y2="1253.17" gradientTransform="translate(798.19 -900.95) scale(1.04 1.06)" xlink:href="#_무제_그라디언트_233"/>
    <linearGradient id="_무제_그라디언트_233-4" data-name="무제 그라디언트 233" x1="49.15" y1="561.91" x2="49.15" y2="414.4" gradientTransform="matrix(1,0,0,1,0,0)" xlink:href="#_무제_그라디언트_233"/>
    <linearGradient id="_무제_그라디언트_21" data-name="무제 그라디언트 21" x1="0" y1="562.34" x2="538.45" y2="562.34" gradientUnits="userSpaceOnUse">
      <stop offset="0" stop-color="#83d519"/>
      <stop offset=".9" stop-color="#c3ef00"/>
    </linearGradient>
    <linearGradient id="linear-gradient" x1="134.61" y1="604.28" x2="134.61" y2="565.38" gradientUnits="userSpaceOnUse">
      <stop offset="0" stop-color="#d1921d"/>
      <stop offset=".16" stop-color="#d59926"/>
      <stop offset=".63" stop-color="#e3ad40"/>
      <stop offset=".75" stop-color="#e0a83a"/>
      <stop offset=".91" stop-color="#d79c2a"/>
      <stop offset="1" stop-color="#d1921d"/>
    </linearGradient>
    <linearGradient id="linear-gradient-2" x1="493.67" y1="583.78" x2="493.67" y2="546.97" xlink:href="#linear-gradient"/>
    <linearGradient id="_무제_그라디언트_322" data-name="무제 그라디언트 322" x1="591.73" y1="654.46" x2="571.11" y2="581.53" gradientUnits="userSpaceOnUse">
      <stop offset="0" stop-color="#effafd"/>
      <stop offset="1" stop-color="#25c9d9"/>
    </linearGradient>
    <linearGradient id="_무제_그라디언트_309" data-name="무제 그라디언트 309" x1="468.62" y1="635.3" x2="660.2" y2="585.63" gradientUnits="userSpaceOnUse">
      <stop offset="0" stop-color="#efb647"/>
      <stop offset=".45" stop-color="#f9d175"/>
      <stop offset="1" stop-color="#e99e28"/>
    </linearGradient>
    <linearGradient id="_무제_그라디언트_309-2" data-name="무제 그라디언트 309" x1="491.56" y1="636.06" x2="735.63" y2="568.75" xlink:href="#_무제_그라디언트_309"/>
  </defs>
  <g class="cls-25">
    <g id="Layer_1" data-name="Layer 1">
      <rect class="cls-16" y="0" width="683.93" height="625.02"/>
      <path class="cls-30" d="M561.29,196.95c-2.7,0-5.27.48-7.62,1.36-2.56-7.06-9.99-12.16-18.77-12.16-1.88,0-3.7.24-5.42.68-1.2-8.67-9.5-15.39-19.57-15.39-9.26,0-17.03,5.68-19.15,13.34-2.95-1.56-6.38-2.45-10.06-2.45-10.89,0-19.72,7.86-19.72,17.56,0,1.39.19,2.73.53,4.02-9.46,1.29-16.71,8.57-16.71,17.36,0,9.7,8.83,17.56,19.72,17.56,4.33,0,8.33-1.24,11.58-3.35,1.78,8.07,9.77,14.15,19.35,14.15,8.04,0,14.95-4.29,18.02-10.43,3.57,4.53,9.47,7.49,16.16,7.49,10.89,0,19.72-7.86,19.72-17.56,0-.22,0-.44-.02-.65,3.32,2.25,7.46,3.59,11.95,3.59,10.89,0,19.72-7.86,19.72-17.56s-8.83-17.56-19.72-17.56Z"/>
      <g>
        <g>
          <path class="cls-37" d="M100.96,521.77c.75,0,3.19-.83,3.19-1.58l-1.83-203.36c0-.75-.61-1.36-1.36-1.36s-1.36.61-1.36,1.36l-1.83,203.52c0,.75,2.43,1.43,3.19,1.43Z"/>
          <g>
            <path class="cls-37" d="M97.43,354.07h7.05c.52,0,.94-.42.94-.93s-.42-.94-.94-.94h-7.05c-.52,0-.93.42-.93.94s.42.93.93.93Z"/>
            <path class="cls-37" d="M95.38,369.35h11.15c.52,0,.93-.42.93-.93s-.42-.93-.93-.93h-11.15c-.52,0-.94.42-.94.93s.42.93.94.93Z"/>
            <path class="cls-37" d="M92.8,388.56h16.31c.52,0,.94-.42.94-.93s-.42-.93-.94-.93h-16.31c-.52,0-.94.42-.94.93s.42.93.94.93Z"/>
            <path class="cls-37" d="M89.48,416.58l22.99-.37c.52,0,.93-.43.92-.95,0-.51-.43-.93-.95-.92l-22.99.37c-.52,0-.93.43-.92.95,0,.52.43.93.95.92Z"/>
            <path class="cls-37" d="M84.96,446.95h32c.52,0,.93-.42.93-.93s-.42-.93-.93-.93h-32c-.52,0-.93.42-.93.93s.42.93.93.93Z"/>
            <path class="cls-37" d="M78.57,505.12h44.77c.52,0,.93-.42.93-.93s-.42-.93-.93-.93h-44.77c-.52,0-.93.42-.93.93s.42.93.93.93Z"/>
            <path class="cls-37" d="M80.88,476.95h40.06c.46,0,.84-.42.84-.93s-.37-.93-.84-.93h-40.06c-.46,0-.84.42-.84.93s.37.93.84.93Z"/>
          </g>
          <path class="cls-37" d="M126.83,521.42s.09,0,.13,0c.56-.07.95-.58.88-1.14l-22.23-167.18c-.07-.56-.6-.95-1.14-.88-.56.07-.95.58-.88,1.14l20.41,167.25c.07.52,2.32.82,2.83.82Z"/>
          <path class="cls-37" d="M75.08,521.42c.5,0,2.87-.41,2.93-.93l20.31-167.14c.07-.56-.32-1.07-.88-1.14-.55-.06-1.07.32-1.14.88l-22.24,167.18c-.07.56.32,1.07.88,1.14.05,0,.09,0,.14,0Z"/>
        </g>
        <g>
          <g>
            <polygon class="cls-36" points="74.74 272.47 63.7 281.37 89.14 306.94 94.32 302.76 74.74 272.47"/>
            <polygon class="cls-36" points="110.09 265.93 95.92 265.59 98.82 301.54 105.47 301.7 110.09 265.93"/>
            <polygon class="cls-36" points="141.42 283.24 130.75 273.91 109.97 303.38 114.97 307.76 141.42 283.24"/>
            <polygon class="cls-36" points="153.52 316.24 151.23 302.25 116.43 311.76 117.51 318.33 153.52 316.24"/>
            <polygon class="cls-36" points="141.18 349.95 148.6 337.87 116.07 322.29 112.59 327.96 141.18 349.95"/>
            <polygon class="cls-36" points="111.47 367.88 124.86 363.23 109.54 330.58 103.26 332.76 111.47 367.88"/>
            <polygon class="cls-36" points="75.35 361.7 88.52 366.96 98.34 332.25 92.16 329.78 75.35 361.7"/>
            <polygon class="cls-36" points="53.32 334.95 60.16 347.37 89.78 326.78 86.57 320.95 53.32 334.95"/>
            <polygon class="cls-36" points="52.45 300.27 49.77 314.19 85.71 317.28 86.96 310.74 52.45 300.27"/>
          </g>
          <path class="cls-37" d="M98.53,333.65c-9.39-1.66-15.69-10.64-14.03-20.03h0c.8-4.55,3.33-8.52,7.11-11.17,3.78-2.65,8.37-3.67,12.92-2.87,4.55.8,8.52,3.33,11.17,7.11,2.65,3.78,3.67,8.37,2.87,12.92-.8,4.55-3.33,8.52-7.11,11.17-2.94,2.06-6.37,3.13-9.89,3.13-1.01,0-2.02-.09-3.04-.26ZM93.01,304.44c-3.25,2.28-5.42,5.69-6.11,9.59h0c-1.42,8.07,3.99,15.79,12.06,17.22,3.9.7,7.85-.19,11.1-2.47,3.25-2.27,5.42-5.69,6.11-9.59.69-3.91-.18-7.85-2.46-11.1-2.28-3.25-5.69-5.42-9.6-6.11-.87-.16-1.74-.23-2.61-.23-3.02,0-5.97.92-8.49,2.69Z"/>
          <path class="cls-23" d="M95.11,315.52c-.6,3.43,1.69,6.71,5.12,7.31,3.43.6,6.71-1.69,7.31-5.12.6-3.43-1.69-6.71-5.12-7.31-3.43-.6-6.71,1.69-7.31,5.12Z"/>
        </g>
      </g>
      <path class="cls-34" d="M252.56,114.47c-2.73,0-5.32.49-7.69,1.37-2.58-7.13-10.09-12.28-18.95-12.28-1.9,0-3.73.24-5.47.68-1.21-8.76-9.59-15.54-19.76-15.54-9.35,0-17.19,5.74-19.33,13.47-2.97-1.57-6.44-2.48-10.15-2.48-11,0-19.92,7.94-19.92,17.73,0,1.4.19,2.76.53,4.06-9.56,1.3-16.87,8.65-16.87,17.53,0,9.79,8.92,17.73,19.92,17.73,4.37,0,8.41-1.26,11.69-3.38,1.8,8.15,9.86,14.29,19.54,14.29,8.12,0,15.1-4.33,18.2-10.53,3.6,4.57,9.56,7.57,16.32,7.57,11,0,19.92-7.94,19.92-17.73,0-.22,0-.44-.02-.66,3.35,2.27,7.53,3.63,12.06,3.63,11,0,19.92-7.94,19.92-17.73s-8.92-17.73-19.92-17.73Z"/>
      <g>
        <path class="cls-24" d="M637.41,521.27c4.06-2.18,7.22-5.95,8.43-10.71,2.28-8.97-3.27-18.02-12.39-20.21-2.55-.61-5.12-.62-7.54-.12.37-6.54-4.01-12.6-10.71-14.21-.81-.19-1.62-.31-2.43-.37-1.02-7.82-6.8-14.57-15.05-16.55-9.81-2.36-19.73,2.83-23.44,11.79-1.32-1.05-2.89-1.83-4.65-2.26-6.45-1.55-12.98,2.34-14.59,8.69-.53,2.09-.46,4.18.1,6.1-7.34-1.36-14.58,3.16-16.41,10.38-.34,1.35-.47,2.71-.41,4.03-3.4-.13-6.56,2.11-7.41,5.49-.37,1.47-.26,2.95.25,4.26-.79-.49-1.68-.87-2.64-1.11-4.75-1.14-9.56,1.72-10.75,6.4-.45,1.79-.31,3.59.31,5.19-.07-.02-.13-.04-.2-.06-1.75-.42-3.52.63-3.96,2.36s.63,3.46,2.38,3.88l113.88,27.36.09-.37c7.93,1.18,15.64-3.78,17.62-11.59,2.02-7.96-2.64-15.98-10.48-18.38Z"/>
        <path class="cls-22" d="M639.73,506.69c-.47-.2-2.43-.81-5.15,0-2.1.59-3.05,1.9-3.4,2.58-1.23.18-2.47.31-3.7.37.72-2.14,1.55-4.23,2.48-6.27,1.15-.18,2.31-.39,3.46-.63.72,1.1,2.83,1.45,4.67.8,1.98-.67,3.61-3.08,3.36-3.36-.24-.3-2.12-1.16-4.87-.35-2.05.58-2.85,1.77-3.14,2.37-1.07.23-2.15.43-3.23.6,1.08-2.3,2.29-4.53,3.62-6.68.9,0,1.84-.05,2.79-.13.45,1.05,2.1,1.6,3.64,1.18,1.68-.41,3-2.49,2.74-2.73-.24-.26-1.68-1.07-3.75-.65-1.57.3-2.29,1.24-2.56,1.73-.87.08-1.73.12-2.57.13.96-1.52,1.98-3,3.07-4.44,1.51.43,3.48-.6,4.7-2.11,1.24-1.61,1.79-4.62,1.48-4.9-.3-.25-2.97-.57-5.35,2.11-1.71,1.99-1.48,3.67-1.25,4.41-1.21,1.6-2.35,3.24-3.4,4.93-.24-.79-.45-1.59-.63-2.38,1-.59,1.39-2.1,1.19-3.34-.3-1.27-1.31-2.82-1.49-3.07-.24-.3-2.42.94-2.07,3.66.25,1.89,1.33,2.53,1.88,2.74.21.94.46,1.89.76,2.83.01.03.03.06.05.08-1.27,2.08-2.42,4.22-3.45,6.43-.74-1.04-1.39-2.14-1.92-3.28.92-.98.92-2.96.54-4.58-.5-1.64-1.69-4.05-2.02-4.16-.26-.11-2.64,1.42-1.93,5.24.66,2.68,2.13,3.39,2.84,3.58.57,1.24,1.26,2.44,2.07,3.56.05.06.11.1.19.11-.98,2.14-1.85,4.35-2.61,6.6-.88-.85-1.73-1.8-2.55-2.83.84-1.28.48-3.28-.36-4.69-.97-1.36-3.05-3.09-3.47-3.17-.19.04-.78.47-1.15,1.47-.36.98-.37,2.53.5,4.14,1.36,2.33,3.07,2.55,3.87,2.51.86,1.09,1.77,2.11,2.7,3.01.07.07.17.1.27.09-.16.5-.32,1.01-.48,1.52-.05.16.05.34.22.38.17.05.35-.05.39-.21.16-.54.33-1.08.51-1.62,1.27-.06,2.56-.18,3.84-.37.71,1.35,3.1,1.96,5.28,1.13,1.13-.42,2.22-1.42,2.81-2.39.61-.98.69-1.84.53-1.96Z"/>
        <path class="cls-32" d="M638.57,542.5c4.06-2.18,7.22-5.95,8.43-10.71,2.28-8.97-3.27-18.02-12.39-20.21-2.55-.61-5.12-.62-7.54-.12.37-6.54-4.01-12.6-10.71-14.21-.81-.19-1.62-.31-2.43-.37-1.02-7.82-6.8-14.57-15.05-16.55-9.81-2.36-19.73,2.83-23.44,11.79-1.32-1.05-2.89-1.83-4.65-2.26-6.45-1.55-12.98,2.34-14.59,8.69-.53,2.09-.46,4.18.1,6.1-7.34-1.36-14.58,3.16-16.41,10.38-.34,1.35-.47,2.71-.41,4.03-3.4-.13-6.56,2.11-7.41,5.49-.37,1.47-.26,2.95.25,4.26-.79-.49-1.68-.87-2.64-1.11-4.75-1.14-9.56,1.72-10.75,6.4-.45,1.79-.31,3.59.31,5.19-.07-.02-.13-.04-.2-.06-1.75-.42-3.52.63-3.96,2.36-.44,1.72.63,3.46,2.38,3.88l113.88,27.36.09-.37c7.93,1.18,15.64-3.78,17.62-11.59,2.02-7.96-2.64-15.98-10.48-18.38Z"/>
      </g>
      <path class="cls-26" d="M348.04,472.93c3.42-3.08,5.58-7.5,5.61-12.39.06-9.24-7.48-16.68-16.84-16.62-2.62.02-5.11.62-7.33,1.68-1.2-6.42-6.9-11.25-13.77-11.2-.83,0-1.65.09-2.44.23-2.86-7.33-10.07-12.49-18.55-12.44-10.07.06-18.44,7.46-19.89,17.03-1.53-.7-3.24-1.08-5.05-1.07-6.62.04-12.02,5.37-12.06,11.91-.01,2.15.56,4.16,1.56,5.89-7.43.44-13.37,6.55-13.42,13.98,0,1.39.19,2.74.57,4-3.33.69-5.85,3.61-5.87,7.09,0,1.52.46,2.92,1.26,4.07-.89-.29-1.83-.45-2.82-.44-4.88.03-8.86,3.96-8.89,8.77-.01,1.84.56,3.55,1.54,4.95-.07,0-.14,0-.21,0-1.8.01-3.26,1.46-3.27,3.23-.01,1.77,1.44,3.2,3.23,3.19l116.89-.73v-.38c7.97-.76,14.25-7.4,14.31-15.45.05-8.19-6.38-14.85-14.55-15.3Z"/>
      <ellipse class="cls-19" cx="587.81" cy="556.7" rx="4.28" ry="7.25" transform="translate(-69.97 1028.66) rotate(-79.1)"/>
      <ellipse class="cls-19" cx="608.02" cy="561.28" rx="4.28" ry="7.25" transform="translate(-58.09 1052.22) rotate(-79.1)"/>
      <g>
        <g>
          <path class="cls-12" d="M467.94,422.28h57.97s4.13,42.82,21.4,74.34c.69,1.25-.19,2.77-1.62,2.77h-97.54c-1.43,0-2.3-1.52-1.62-2.77,17.27-31.52,21.4-74.34,21.4-74.34Z"/>
          <path class="cls-11" d="M482.5,422.28h28.85s2.05,42.82,10.65,74.34c.34,1.25-.09,2.77-.8,2.77h-48.54c-.71,0-1.15-1.52-.8-2.77,8.6-31.52,10.65-74.34,10.65-74.34Z"/>
        </g>
        <g class="cls-7">
          <path class="cls-12" d="M538.02,475.61c.11.31.23.63.34.94h-82.89c.11-.31.23-.63.34-.94h82.21Z"/>
          <path class="cls-12" d="M536.43,470.96c.1.31.2.63.31.94h-79.64c.11-.31.21-.63.31-.94h79.02Z"/>
          <path class="cls-12" d="M539.76,480.25c.12.31.24.63.36.94h-86.4c.12-.31.24-.63.36-.94h85.68Z"/>
          <path class="cls-12" d="M533.61,461.68c.09.31.17.63.26.94h-73.91c.09-.32.18-.63.26-.94h73.38Z"/>
          <path class="cls-12" d="M534.97,466.32c.1.31.19.63.29.94h-76.67c.1-.31.19-.63.29-.94h76.09Z"/>
          <path class="cls-12" d="M541.65,484.89c.13.31.27.63.41.94h-90.27c.14-.31.28-.63.41-.94h89.45Z"/>
          <path class="cls-12" d="M447.83,494.17h98.17c.16.32.33.63.5.94h-99.17c.17-.31.34-.63.5-.94Z"/>
          <path class="cls-12" d="M543.72,489.53c.15.31.29.63.44.94h-94.48c.15-.31.29-.63.44-.94h93.61Z"/>
          <path class="cls-12" d="M526.78,429.2c.04.3.09.62.14.94h-60c.05-.32.1-.64.14-.94h59.72Z"/>
          <path class="cls-12" d="M527.5,433.84c.05.31.1.62.16.94h-61.47c.05-.32.1-.63.16-.94h61.15Z"/>
          <path class="cls-12" d="M526.16,424.56c.04.29.07.6.12.94h-58.71c.04-.34.08-.65.12-.94h58.48Z"/>
          <path class="cls-12" d="M532.36,457.04c.08.31.16.63.25.94h-71.38c.08-.31.17-.63.25-.94h70.89Z"/>
          <path class="cls-12" d="M528.3,438.48c.06.31.11.62.17.94h-63.1c.06-.32.11-.63.17-.94h62.76Z"/>
          <path class="cls-12" d="M531.22,452.4c.07.32.15.62.22.94h-69.04c.08-.32.15-.63.22-.94h68.59Z"/>
          <path class="cls-12" d="M530.15,447.76c.07.31.14.63.21.94h-66.89c.07-.31.14-.63.21-.94h66.47Z"/>
          <path class="cls-12" d="M529.19,443.12c.06.31.13.63.19.94h-64.91c.06-.32.13-.63.19-.94h64.53Z"/>
        </g>
        <g>
          <path class="cls-6" d="M467.94,422.28h57.97s.09.87.27,2.41h-58.51c.19-1.54.27-2.41.27-2.41Z"/>
          <path class="cls-23" d="M502.43,386.2l25.85,33.13c.94,1.2.08,2.96-1.44,2.96h-59.83c-1.53,0-2.38-1.75-1.44-2.96l25.85-33.13c2.8-3.59,8.23-3.59,11.03,0Z"/>
          <path class="cls-13" d="M499.65,386.2l12.81,33.13c.47,1.2.04,2.96-.72,2.96h-29.66c-.76,0-1.18-1.75-.72-2.96l12.81-33.13c1.39-3.59,4.08-3.59,5.47,0Z"/>
        </g>
        <g>
          <rect class="cls-9" x="455.36" y="499.39" width="83.12" height="21.33" transform="translate(993.84 1020.1) rotate(180)"/>
          <rect class="cls-10" x="479.6" y="499.39" width="34.64" height="21.33" transform="translate(993.84 1020.1) rotate(180)"/>
          <rect class="cls-2" x="455.36" y="499.39" width="83.12" height="6.98" transform="translate(993.84 1005.75) rotate(180)"/>
        </g>
        <g>
          <g>
            <path class="cls-29" d="M534.98,336.1l15.67,9.76-38.12,61.22-15.67-9.76,38.12-61.22ZM548.26,346.42l-12.73-7.93-36.29,58.28,12.73,7.93,36.29-58.28Z"/>
            <g>
              <rect class="cls-29" x="537.37" y="339.96" width="1.73" height="16.73" transform="translate(-41.95 621.13) rotate(-58.09)"/>
              <rect class="cls-29" x="533.75" y="345.78" width="1.73" height="16.73" transform="translate(-48.59 620.8) rotate(-58.09)"/>
              <rect class="cls-29" x="530.13" y="351.6" width="1.73" height="16.73" transform="translate(-55.23 620.47) rotate(-58.09)"/>
              <rect class="cls-29" x="526.51" y="357.41" width="1.73" height="16.73" transform="translate(-61.87 620.15) rotate(-58.09)"/>
              <rect class="cls-29" x="522.89" y="363.23" width="1.73" height="16.73" transform="translate(-68.52 619.81) rotate(-58.09)"/>
              <rect class="cls-29" x="519.27" y="369.04" width="1.73" height="16.73" transform="translate(-75.17 619.47) rotate(-58.09)"/>
              <rect class="cls-29" x="515.65" y="374.86" width="1.73" height="16.73" transform="translate(-81.81 619.15) rotate(-58.09)"/>
              <rect class="cls-29" x="512.02" y="380.68" width="1.73" height="16.73" transform="translate(-88.45 618.82) rotate(-58.09)"/>
              <rect class="cls-29" x="508.4" y="386.49" width="1.73" height="16.73" transform="translate(-95.1 618.49) rotate(-58.09)"/>
            </g>
            <rect class="cls-29" x="476.66" y="377.34" width="85.96" height="1.73" transform="translate(-76.08 619.42) rotate(-58.09)"/>
          </g>
          <g>
            <path class="cls-29" d="M458.86,493.28l-15.67-9.76,38.12-61.22,15.67,9.76-38.12,61.22ZM445.57,482.97l12.73,7.93,36.29-58.28-12.73-7.93-36.29,58.28Z"/>
            <g>
              <rect class="cls-29" x="454.73" y="472.69" width="1.73" height="16.73" transform="translate(-193.58 613.56) rotate(-58.09)"/>
              <rect class="cls-29" x="458.36" y="466.88" width="1.73" height="16.73" transform="translate(-186.93 613.89) rotate(-58.09)"/>
              <rect class="cls-29" x="461.98" y="461.06" width="1.73" height="16.73" transform="translate(-180.29 614.23) rotate(-58.09)"/>
              <rect class="cls-29" x="465.6" y="455.24" width="1.73" height="16.73" transform="translate(-173.64 614.56) rotate(-58.09)"/>
              <rect class="cls-29" x="469.22" y="449.43" width="1.73" height="16.73" transform="translate(-167 614.88) rotate(-58.09)"/>
              <rect class="cls-29" x="472.84" y="443.61" width="1.73" height="16.73" transform="translate(-160.36 615.22) rotate(-58.09)"/>
              <rect class="cls-29" x="476.46" y="437.8" width="1.73" height="16.73" transform="translate(-153.71 615.55) rotate(-58.09)"/>
              <rect class="cls-29" x="480.08" y="431.98" width="1.73" height="16.73" transform="translate(-147.07 615.88) rotate(-58.09)"/>
              <rect class="cls-29" x="483.7" y="426.16" width="1.73" height="16.73" transform="translate(-140.42 616.22) rotate(-58.09)"/>
            </g>
            <rect class="cls-29" x="431.22" y="450.32" width="85.96" height="1.73" transform="translate(-159.44 615.29) rotate(-58.1)"/>
          </g>
          <g>
            <path class="cls-29" d="M418.33,376.64l9.76-15.67,61.22,38.12-9.76,15.67-61.22-38.12ZM428.64,363.35l-7.93,12.73,58.28,36.29,7.93-12.73-58.28-36.29Z"/>
            <g>
              <rect class="cls-29" x="422.19" y="372.51" width="16.73" height="1.73" transform="translate(-113.97 541.53) rotate(-58.09)"/>
              <rect class="cls-29" x="428.01" y="376.13" width="16.73" height="1.73" transform="translate(-114.3 548.17) rotate(-58.09)"/>
              <rect class="cls-29" x="433.82" y="379.75" width="16.73" height="1.73" transform="translate(-114.64 554.82) rotate(-58.09)"/>
              <rect class="cls-29" x="439.64" y="383.37" width="16.73" height="1.73" transform="translate(-114.97 561.47) rotate(-58.09)"/>
              <rect class="cls-29" x="445.45" y="386.99" width="16.73" height="1.73" transform="translate(-115.3 568.12) rotate(-58.09)"/>
              <rect class="cls-29" x="451.27" y="390.61" width="16.73" height="1.73" transform="translate(-115.63 574.76) rotate(-58.09)"/>
              <rect class="cls-29" x="457.09" y="394.24" width="16.73" height="1.73" transform="translate(-115.97 581.39) rotate(-58.09)"/>
              <rect class="cls-29" x="462.9" y="397.86" width="16.73" height="1.73" transform="translate(-116.3 588.04) rotate(-58.09)"/>
              <rect class="cls-29" x="468.72" y="401.48" width="16.73" height="1.73" transform="translate(-116.63 594.69) rotate(-58.09)"/>
            </g>
            <rect class="cls-29" x="459.57" y="348.99" width="1.73" height="85.96" transform="translate(-115.68 575.64) rotate(-58.09)"/>
          </g>
          <g>
            <path class="cls-29" d="M575.51,452.75l-9.76,15.67-61.22-38.12,9.76-15.67,61.22,38.12ZM565.2,466.04l7.93-12.73-58.28-36.29-7.93,12.73,58.28,36.29Z"/>
            <g>
              <rect class="cls-29" x="554.92" y="455.15" width="16.73" height="1.73" transform="translate(-121.55 693.17) rotate(-58.09)"/>
              <rect class="cls-29" x="549.1" y="451.53" width="16.73" height="1.73" transform="translate(-121.21 686.53) rotate(-58.09)"/>
              <rect class="cls-29" x="543.29" y="447.91" width="16.73" height="1.73" transform="translate(-120.88 679.88) rotate(-58.09)"/>
              <rect class="cls-29" x="537.47" y="444.28" width="16.73" height="1.73" transform="translate(-120.55 673.23) rotate(-58.09)"/>
              <rect class="cls-29" x="531.65" y="440.66" width="16.73" height="1.73" transform="translate(-120.22 666.59) rotate(-58.09)"/>
              <rect class="cls-29" x="525.84" y="437.04" width="16.73" height="1.73" transform="translate(-119.89 659.94) rotate(-58.09)"/>
              <rect class="cls-29" x="520.02" y="433.42" width="16.73" height="1.73" transform="translate(-119.56 653.3) rotate(-58.09)"/>
              <rect class="cls-29" x="514.21" y="429.8" width="16.73" height="1.73" transform="translate(-119.22 646.65) rotate(-58.09)"/>
              <rect class="cls-29" x="508.39" y="426.18" width="16.73" height="1.73" transform="translate(-118.89 640.01) rotate(-58.09)"/>
            </g>
            <rect class="cls-29" x="532.54" y="394.43" width="1.73" height="85.96" transform="translate(-119.84 659.04) rotate(-58.09)"/>
          </g>
          <path class="cls-38" d="M492.34,411.84c-1.57,2.53-.8,5.85,1.73,7.43,2.53,1.57,5.85.8,7.43-1.73,1.57-2.53.8-5.85-1.73-7.43-2.53-1.57-5.85-.8-7.43,1.73Z"/>
          <path class="cls-20" d="M494.95,413.46c-.68,1.09-.35,2.52.74,3.2,1.09.68,2.52.35,3.2-.74.68-1.09.35-2.52-.74-3.2-1.09-.68-2.52-.35-3.2.74Z"/>
        </g>
        <path class="cls-29" d="M503.72,467.93v-19.95c0-3.75-3.05-6.8-6.8-6.8s-6.8,3.05-6.8,6.8v19.95h13.61Z"/>
        <path class="cls-18" d="M491.98,443.04h9.88v18.13c0,2.71-2.2,4.91-4.91,4.91h-.07c-2.71,0-4.91-2.2-4.91-4.91v-18.13h0Z" transform="translate(993.84 909.11) rotate(180)"/>
      </g>
      <path class="cls-41" d="M83.75,530.27c3.42-3.08,5.58-7.5,5.61-12.39.06-9.24-7.48-16.68-16.84-16.62-2.62.02-5.11.62-7.33,1.68-1.2-6.42-6.9-11.25-13.77-11.2-.83,0-1.65.09-2.44.23-2.86-7.33-10.07-12.49-18.55-12.44-10.07.06-18.44,7.46-19.89,17.03-1.53-.7-3.24-1.08-5.05-1.07-1.97.01-3.83.5-5.48,1.35v65.08l83.99-.52v-.38c7.97-.76,14.25-7.4,14.31-15.45.05-8.19-6.38-14.85-14.55-15.3Z"/>
      <g>
        <rect class="cls-17" x="93.21" y="487.67" width="3.15" height="47.25"/>
        <path class="cls-17" d="M85.79,529.97h18c2.73,0,4.95,2.22,4.95,4.95h-27.9c0-2.73,2.22-4.95,4.95-4.95Z"/>
        <g>
          <polygon class="cls-15" points="43.71 516.66 46.01 518.96 128.32 518.96 150.85 472.98 150.85 468.84 43.71 516.66"/>
          <polygon class="cls-17" points="149.5 469.76 148.41 472.06 68.08 472.06 47.11 516.2 44.63 516.2 66.71 469.76 149.5 469.76"/>
          <polygon class="cls-27" points="148.41 472.06 127.43 516.2 47.11 516.2 68.08 472.06 148.41 472.06"/>
          <g class="cls-31">
            <polygon class="cls-15" points="96.78 472.06 76.62 516.2 71.47 516.2 91.62 472.06 96.78 472.06"/>
            <polygon class="cls-15" points="88.4 472.06 68.24 516.2 66.74 516.2 86.9 472.06 88.4 472.06"/>
            <polygon class="cls-15" points="140.02 472.06 119.87 516.2 114.98 516.2 135.13 472.06 140.02 472.06"/>
            <polygon class="cls-15" points="132.08 472.06 111.93 516.2 110.5 516.2 130.66 472.06 132.08 472.06"/>
            <polygon class="cls-15" points="118.04 472.06 97.89 516.2 96.39 516.2 116.54 472.06 118.04 472.06"/>
          </g>
          <path class="cls-33" d="M66.27,468.61l-22.73,47.82h84.33l22.73-47.82h-84.33ZM102.28,480.57l5.03-10.58h18.7l-5.03,10.58h-18.7ZM120.33,481.95l-4.37,9.2h-18.7l4.37-9.2h18.7ZM100.75,480.57h-20.08l5.03-10.58h20.08l-5.03,10.58ZM100.1,481.95l-4.37,9.2h-20.08l4.37-9.2h20.08ZM74.12,491.14h-17.03l4.37-9.2h17.03l-4.37,9.2ZM73.46,492.52l-4.81,10.12h-17.03l4.81-10.12h17.03ZM74.99,492.52h20.08l-4.81,10.12h-20.08l4.81-10.12ZM89.61,504.02l-5.24,11.04h-20.08l5.24-11.04h20.08ZM91.13,504.02h18.7l-5.24,11.04h-18.7l5.24-11.04ZM91.79,502.64l4.81-10.12h18.7l-4.81,10.12h-18.7ZM116.83,492.52h20.88l-4.81,10.12h-20.88l4.81-10.12ZM117.48,491.14l4.37-9.2h20.88l-4.37,9.2h-20.88ZM122.51,480.57l5.03-10.58h20.88l-5.03,10.58h-20.88ZM67.14,469.99h17.03l-5.03,10.58h-17.03l5.03-10.58ZM50.97,504.02h17.03l-5.24,11.04h-17.03l5.24-11.04ZM127,515.05h-20.88l5.24-11.04h20.88l-5.24,11.04Z"/>
        </g>
      </g>
      <path class="cls-21" d="M683.31,566.19c-63.5-29.41-166.32-58.69-328.9-65.5-157.38-6.59-273.86,19.74-354.4,50.71v73.63h467.68c24.16-9.08,67.77-9.65,88.39-10.38,29.51-1.04,67.86-5.4,72.15-21.86,3.18-12.18,20.87-20.05,55.08-23.61v-2.98Z"/>
      <g>
        <path class="cls-4" d="M178,600.01c.48,2.28-11.54,4.52-18.87,4.28l-26.22-.7s12.09-7.01,25.04-7.09c5.27-.03,19.56,1.23,20.05,3.51Z"/>
        <g>
          <path class="cls-35" d="M150.02,565.38h-14.39c-9.08,0-16.44,9.51-16.44,21.23,0,.98.05,1.95.15,2.9.89,8.41,8.04,14.77,16.5,14.77h14.18v-38.9Z"/>
          <path class="cls-40" d="M166.46,586.61c0-11.73-7.36-21.23-16.44-21.23s-16.44,9.51-16.44,21.23c0,7.37,2.91,13.86,7.33,17.67h18.22c4.42-3.81,7.33-10.3,7.33-17.67Z"/>
          <ellipse class="cls-1" cx="150.7" cy="586.61" rx="11.77" ry="15.2"/>
          <ellipse class="cls-40" cx="149.98" cy="586.61" rx="10.37" ry="13.4"/>
          <path class="cls-1" d="M155.81,586.61c0,3.65-2.29,6.6-5.11,6.6s-5.11-2.96-5.11-6.6,2.29-6.6,5.11-6.6,5.11,2.96,5.11,6.6Z"/>
        </g>
      </g>
      <g>
        <path class="cls-4" d="M534.73,579.73c.46,2.16-10.92,4.27-17.86,4.05l-24.81-.66s11.44-6.64,23.7-6.71c4.98-.03,18.51,1.17,18.97,3.32Z"/>
        <g>
          <path class="cls-14" d="M508.26,546.97h-13.62c-8.59,0-15.55,8.99-15.55,20.09,0,.93.05,1.85.14,2.74.84,7.96,7.61,13.98,15.61,13.98h13.42v-36.81Z"/>
          <path class="cls-40" d="M523.81,567.06c0-11.1-6.96-20.09-15.55-20.09s-15.55,8.99-15.55,20.09c0,6.98,2.76,13.12,6.94,16.72h17.24c4.18-3.6,6.94-9.74,6.94-16.72Z"/>
          <ellipse class="cls-1" cx="508.9" cy="567.06" rx="11.14" ry="14.39"/>
          <ellipse class="cls-40" cx="508.22" cy="567.06" rx="9.81" ry="12.68"/>
          <ellipse class="cls-1" cx="508.9" cy="567.06" rx="4.84" ry="6.25"/>
        </g>
      </g>
      <g>
        <path class="cls-5" d="M683.75,625.02v-56.19c-34.29,3.56-52.02,11.43-55.2,23.62-4.3,16.47-42.64,20.82-72.15,21.86-20.86.74-65.25,1.32-89.22,10.7h216.58Z"/>
        <path class="cls-39" d="M683.75,568.83c-34.31,3.55-52.05,11.43-55.23,23.63-4.3,16.47-42.64,20.82-72.15,21.86-20.86.74-65.25,1.32-89.22,10.7h16.97c24.24-4.89,55.67-5.38,72.26-5.97,29.51-1.04,67.86-5.4,72.15-21.86,3.18-12.2,20.93-20.07,55.23-23.63v-4.74Z"/>
        <path class="cls-3" d="M683.75,573.53c-34.14,3.57-51.8,11.43-54.98,23.6-4.3,16.47-42.64,20.82-72.15,21.86-16.65.59-48.26,1.08-72.54,6.02h40.6c12.45-.74,23.93-1.01,31.94-1.29,29.51-1.05,67.86-5.4,72.15-21.86,3.18-12.17,20.83-20.04,54.98-23.6v-4.73Z"/>
      </g>
      <path class="cls-28" d="M389.64,530.02c-10.4-9.42,17.42-16.56,28.01-19.97,5.97-1.93,9.27-3.4,10.56-4.42-6.25-.76-13.18-1.1-19.69-1.69-.92,3.22-5.7,3.26-8.28,3.36-1.92.07-3.83.19-5.74.41-11.04,1.26-40.53,5.66-39.92,16.77.75,13.66,26.04,12.42,29.04,24.84,3,12.42-33.22,17.94-33.22,17.94-61.71,6.59-110.77,32.25-144.26,57.79h138.32c15.39-15.26,34-26.41,49.96-33.12,27.82-11.69,43.27-23.59,34.94-38.81-8.34-15.21-29.32-13.66-39.71-23.08Z"/>
      <g>
        <rect class="cls-17" x="262.58" y="472.93" width="3.15" height="47.25"/>
        <path class="cls-17" d="M255.16,515.23h18c2.73,0,4.95,2.22,4.95,4.95h-27.9c0-2.73,2.22-4.95,4.95-4.95Z"/>
        <g>
          <polygon class="cls-15" points="213.08 498.7 215.38 501 297.69 501 320.22 455.02 320.22 450.88 213.08 498.7"/>
          <polygon class="cls-17" points="318.87 451.8 317.78 454.1 237.45 454.1 216.48 498.24 214 498.24 236.07 451.8 318.87 451.8"/>
          <polygon class="cls-27" points="317.78 454.1 296.8 498.24 216.48 498.24 237.45 454.1 317.78 454.1"/>
          <g class="cls-31">
            <polygon class="cls-15" points="258.37 453.93 238.22 498.07 233.06 498.07 253.22 453.93 258.37 453.93"/>
            <polygon class="cls-15" points="249.99 453.93 229.84 498.07 228.34 498.07 248.49 453.93 249.99 453.93"/>
            <polygon class="cls-15" points="301.62 453.93 281.46 498.07 276.58 498.07 296.73 453.93 301.62 453.93"/>
            <polygon class="cls-15" points="293.68 453.93 273.52 498.07 272.1 498.07 292.25 453.93 293.68 453.93"/>
            <polygon class="cls-15" points="279.64 453.93 259.49 498.07 257.99 498.07 278.14 453.93 279.64 453.93"/>
          </g>
          <path class="cls-33" d="M235.64,450.65l-22.73,47.82h84.33l22.73-47.82h-84.33ZM271.65,462.61l5.03-10.58h18.7l-5.03,10.58h-18.7ZM289.7,463.99l-4.37,9.2h-18.7l4.37-9.2h18.7ZM270.12,462.61h-20.08l5.03-10.58h20.08l-5.03,10.58ZM269.46,463.99l-4.37,9.2h-20.08l4.37-9.2h20.08ZM243.48,473.18h-17.03l4.37-9.2h17.03l-4.37,9.2ZM242.83,474.56l-4.81,10.12h-17.03l4.81-10.12h17.03ZM244.35,474.56h20.08l-4.81,10.12h-20.08l4.81-10.12ZM258.98,486.06l-5.24,11.04h-20.08l5.24-11.04h20.08ZM260.5,486.06h18.7l-5.24,11.04h-18.7l5.24-11.04ZM261.16,484.68l4.81-10.12h18.7l-4.81,10.12h-18.7ZM286.2,474.56h20.88l-4.81,10.12h-20.88l4.81-10.12ZM286.85,473.18l4.37-9.2h20.88l-4.37,9.2h-20.88ZM291.88,462.61l5.03-10.58h20.88l-5.03,10.58h-20.88ZM236.51,452.03h17.03l-5.03,10.58h-17.03l5.03-10.58ZM220.34,486.06h17.03l-5.24,11.04h-17.03l5.24-11.04ZM296.37,497.09h-20.88l5.24-11.04h20.88l-5.24,11.04Z"/>
        </g>
      </g>
      <g>
        <rect class="cls-17" x="178.5" y="458.23" width="3.81" height="57.19"/>
        <g>
          <polygon class="cls-15" points="118.58 488.19 121.3 490.91 218.8 490.91 245.49 436.44 245.49 431.54 118.58 488.19"/>
          <polygon class="cls-17" points="243.9 432.63 242.6 435.35 147.45 435.35 122.6 487.64 119.67 487.64 145.81 432.63 243.9 432.63"/>
          <polygon class="cls-27" points="242.6 435.35 217.75 487.64 122.6 487.64 147.45 435.35 242.6 435.35"/>
          <g class="cls-31">
            <polygon class="cls-15" points="180.46 435.19 156.3 488.12 150.11 488.12 174.28 435.19 180.46 435.19"/>
            <polygon class="cls-15" points="170.41 435.19 146.25 488.12 144.45 488.12 168.61 435.19 170.41 435.19"/>
            <polygon class="cls-15" points="232.31 435.19 208.15 488.12 202.29 488.12 226.46 435.19 232.31 435.19"/>
            <polygon class="cls-15" points="222.79 435.19 198.63 488.12 196.92 488.12 221.09 435.19 222.79 435.19"/>
            <polygon class="cls-15" points="205.96 435.19 181.8 488.12 180 488.12 204.16 435.19 205.96 435.19"/>
          </g>
          <path class="cls-33" d="M145.3,431.27l-26.92,56.65h99.9l26.92-56.65h-99.9ZM187.96,445.43l5.95-12.53h22.16l-5.95,12.53h-22.16ZM209.34,447.06l-5.18,10.89h-22.16l5.18-10.89h22.16ZM186.15,445.43h-23.79l5.95-12.53h23.79l-5.95,12.53ZM185.37,447.06l-5.18,10.89h-23.79l5.18-10.89h23.79ZM154.59,457.96h-20.17l5.18-10.89h20.17l-5.18,10.89ZM153.82,459.59l-5.7,11.98h-20.17l5.7-11.98h20.17ZM155.63,459.59h23.79l-5.7,11.98h-23.79l5.69-11.98ZM172.95,473.21l-6.21,13.07h-23.79l6.21-13.07h23.79ZM174.75,473.21h22.16l-6.21,13.07h-22.16l6.21-13.07ZM175.53,471.57l5.7-11.98h22.16l-5.7,11.98h-22.16ZM205.19,459.59h24.73l-5.7,11.98h-24.73l5.7-11.98ZM205.97,457.96l5.18-10.89h24.73l-5.18,10.89h-24.73ZM211.92,445.43l5.95-12.53h24.73l-5.95,12.53h-24.73ZM146.33,432.9h20.17l-5.95,12.53h-20.17l5.95-12.53ZM127.17,473.21h20.17l-6.21,13.07h-20.17l6.21-13.07ZM217.24,486.28h-24.73l6.21-13.07h24.73l-6.21,13.07Z"/>
        </g>
        <path class="cls-17" d="M169.51,509.43h21.79c3.31,0,5.99,2.68,5.99,5.99h-33.77c0-3.31,2.68-5.99,5.99-5.99Z"/>
      </g>
      <ellipse class="cls-8" cx="28.04" cy="571.05" rx="9.4" ry="5.65" transform="translate(-262.91 78.88) rotate(-27.78)"/>
      <ellipse class="cls-8" cx="49.26" cy="561.1" rx="6.65" ry="4" transform="translate(-255.83 87.62) rotate(-27.78)"/>
    </g>
  </g>
</svg>