<?xml version="1.0" encoding="UTF-8"?>
<svg id="Layer_1" data-name="Layer 1" xmlns="http://www.w3.org/2000/svg" viewBox="0 0 129 33">
  <defs>
    <style>
      .cls-1 {
        fill: #fff;
      }

      .cls-2 {
        fill: #1a4fff;
      }

      .cls-3 {
        fill: none;
      }

      .cls-4 {
        fill: #2354ff;
      }

      .cls-5 {
        fill: #0647ff;
      }
    </style>
  </defs>
  <g>
    <path d="M41.31,9.48h.85c.83,0,1.45,1.87,1.9,2.95,1.05,2.39,2.08,3.08,3.86,3.08.27,0,.55-.03.8-.07h3.24l.92-2.86h5.04l.94,2.86h3.77L57.54.38h-3.77l-4.14,12.3c-.1.03-.29.08-.53.08-1.32,0-1.74-1.41-2.37-2.68-.27-.54-.6-1.05-1.05-1.43,1.49-.47,3.03-1.83,3.03-4.09,0-2.77-1.99-4.2-4.93-4.2h-6.2v15.06h3.73v-5.96h0ZM54.82,6.63c.34-1.03.56-2.57.56-2.57h.09s.16,1.52.51,2.59l1.03,3.17h-3.23l1.05-3.19h0ZM41.31,3.08h1.79c1.03,0,1.88.45,1.88,1.76,0,1.61-1.25,1.94-2.32,1.94h-1.34s0-3.71,0-3.71Z"/>
    <path d="M74.86.38h-3.06v7.23c0,.87.11,2.08.16,2.92h-.09c-.36-.89-.8-2.03-1.14-2.68l-3.95-7.48h-4v15.06h3.06v-7.23c0-.83-.11-1.83-.18-2.68h.09c.31.8.71,1.79,1.09,2.45l4.11,7.45h3.91V.38h0Z"/>
    <path d="M88.36,10.4l-3.26-.33c.27,1.96-.98,2.92-2.52,2.92-1.63,0-3.06-1.05-3.06-5.16,0-3.88,1.32-5.09,2.95-5.09s2.63.96,2.26,3.35l3.48-.31c.49-3.26-1.27-5.67-5.67-5.67s-6.87,2.25-6.87,7.7,2.63,7.9,6.72,7.9,6.23-2.25,5.98-5.31h0Z"/>
    <polygon points="97.41 6.07 92.84 6.07 92.84 .38 89.11 .38 89.11 15.44 92.84 15.44 92.84 9.06 97.41 9.06 97.41 15.44 101.14 15.44 101.14 .38 97.41 .38 97.41 6.07"/>
    <polygon points="106.36 9.15 111.61 9.15 111.61 6.38 106.36 6.38 106.36 3.15 112.61 3.15 112.61 .38 102.63 .38 102.63 15.44 112.83 15.44 112.83 12.68 106.36 12.68 106.36 9.15"/>
    <path d="M122.7,10.09c-.27-.54-.6-1.05-1.05-1.43,1.5-.47,3.04-1.83,3.04-4.09,0-2.77-1.99-4.2-4.93-4.2h-6.21v15.06h3.73v-5.96h.85c.83,0,1.45,1.87,1.9,2.95,1.05,2.39,2.08,3.08,3.86,3.08.69,0,1.5-.2,1.5-.2l.29-2.66s-.27.11-.6.11c-1.32,0-1.74-1.41-2.37-2.68h0ZM118.61,6.78h-1.34v-3.71h1.79c1.03,0,1.87.45,1.87,1.76,0,1.61-1.25,1.94-2.32,1.94h0Z"/>
    <path d="M127.73,1.09c0-.31-.22-.37-.44-.37h-.43v1.18h.23v-.47h.1l.27.47h.26l-.29-.49c.17-.03.29-.14.29-.32h0ZM127.31,1.26h-.21v-.33h.21c.09,0,.19.03.19.16,0,.11-.09.17-.19.17Z"/>
    <path d="M127.27.11c-.58,0-1.22.37-1.22,1.22s.63,1.2,1.22,1.2,1.22-.36,1.22-1.2-.63-1.22-1.22-1.22ZM127.27,2.28c-.49,0-.93-.29-.93-.95s.45-.96.93-.96.92.29.92.96-.43.95-.92.95Z"/>
    <path d="M43.61,18.68h-5.91v14.09h3.49v-5.03h2.42c2.84,0,4.78-1.77,4.78-4.84,0-2.82-2-4.22-4.78-4.22ZM42.81,25.22h-1.63v-4.01h1.63c1.08,0,2.07.46,2.07,1.9,0,1.52-.98,2.11-2.07,2.11Z"/>
    <path d="M58.54,27.76c-.25-.5-.56-.98-.98-1.34,1.4-.44,2.84-1.71,2.84-3.82,0-2.59-1.86-3.92-4.61-3.92h-5.8v14.09h3.49v-5.57h.79c.77,0,1.36,1.75,1.77,2.76.98,2.23,1.94,2.88,3.61,2.88.65,0,1.4-.19,1.4-.19l.27-2.48s-.25.1-.56.1c-1.23,0-1.63-1.31-2.21-2.5h0ZM54.72,24.67h-1.25v-3.47h1.67c.96,0,1.75.42,1.75,1.65,0,1.5-1.17,1.82-2.17,1.82Z"/>
    <polygon points="62.15 21.15 64.03 21.15 64.03 30.31 62.15 30.31 62.15 32.77 69.41 32.77 69.41 30.31 67.51 30.31 67.51 21.15 69.41 21.15 69.41 18.68 62.15 18.68 62.15 21.15"/>
    <path d="M79.23,24.97c-.35.96-.61,2.02-.61,2.02h-.08s-.25-1.02-.61-2.02l-2.3-6.28h-4.32v14.09h2.86v-7.12c0-.83-.15-2.67-.15-2.67h.08s.35,1.82.65,2.57l2.73,7.22h1.57l2.71-7.22c.27-.71.69-2.69.69-2.69h.08s-.23,1.96-.23,2.8v7.12h3.26v-14.09h-4.11l-2.23,6.28h0Z"/>
    <polygon points="91.61 26.89 96.51 26.89 96.51 24.3 91.61 24.3 91.61 21.27 97.45 21.27 97.45 18.68 88.12 18.68 88.12 32.77 97.66 32.77 97.66 30.19 91.61 30.19 91.61 26.89"/>
  </g>
  <rect class="cls-3" x=".27" y=".36" width="32.51" height="32.51"/>
  <rect class="cls-3" x="3.46" y="5.14" width="20.4" height="23.59"/>
  <rect class="cls-4" y=".27" width="32.46" height="32.46"/>
  <path class="cls-1" d="M8.44,11.33s-6.23,11.14,2.34,14.09c0,0,4.08,1.2,7.11-.43,0,0,9.43,1.09,8.85-8.1,0,0,.04-2.94-3.89-6.13,0,0,2-2.28-.53-3.77,0,0-1.7-.58-2.79,1.66,0,0-3.46-1.76-8.34-.04,0,0-.99-1.86-2.7-1.5-1.07.22-1.85,1.22-1.74,2.3.07.68.47,1.43,1.69,1.94Z"/>
  <g>
    <path class="cls-5" d="M20.05,22.08c-.93,0-1.85-.46-2.65-1.35-.15-.16-.14-.42.03-.56.16-.15.42-.14.56.03.91,1,1.99,1.32,2.96.88,1.06-.48,1.71-1.71,1.56-2.92-.28-2.27-2.15-2.38-2.23-2.38-.22,0-.39-.2-.38-.42,0-.22.22-.43.41-.38.03,0,2.62.13,2.99,3.08.19,1.55-.66,3.12-2.02,3.75-.4.19-.82.28-1.23.28Z"/>
    <path class="cls-5" d="M22.92,18.54h0c-.22,0-.4-.18-.4-.4.01-2.72,1.86-3.22,1.94-3.24.21-.06.43.08.49.29.05.21-.07.43-.29.49-.06.02-1.33.4-1.34,2.47,0,.22-.18.4-.4.4Z"/>
    <path class="cls-5" d="M24.56,22c-1.51,0-2.22-1.22-2.39-1.87-.06-.21.07-.43.29-.49.21-.05.43.07.49.29h0c.01.05.36,1.27,1.62,1.27.22,0,.4.18.4.4s-.18.4-.4.4Z"/>
  </g>
  <ellipse class="cls-2" cx="15.3" cy="13.95" rx="1.21" ry=".75"/>
  <ellipse class="cls-2" cx="24" cy="13.21" rx=".83" ry=".6"/>
</svg>