<?xml version="1.0" encoding="UTF-8"?>
<svg id="Layer_1" data-name="Layer 1" xmlns="http://www.w3.org/2000/svg" viewBox="0 0 129 33">
  <defs>
    <style>
      .cls-1 {
        fill: #fff;
      }

      .cls-2 {
        fill: #1a4fff;
      }

      .cls-3 {
        fill: none;
      }

      .cls-4 {
        fill: #2354ff;
      }

      .cls-5 {
        fill: #0647ff;
      }
    </style>
  </defs>
  <g>
    <g>
      <path d="M37.22,3.73h4.38c2.37,0,3.6,1.08,3.6,2.7,0,1.22-.82,2.05-1.98,2.29v.1c1.27.06,2.39,1.03,2.39,2.56,0,1.71-1.33,2.96-3.68,2.96h-4.72V3.73ZM42.65,6.9c0-.72-.54-1.17-1.44-1.17h-1.51v2.39h1.48c.85,0,1.46-.45,1.46-1.22ZM43.01,11.1c0-.83-.62-1.36-1.61-1.36h-1.68v2.58h1.64c1.14,0,1.66-.45,1.66-1.22Z"/>
      <path d="M45.75,14.34l3.6-10.61h3.31l3.59,10.61h-2.68l-.72-2.27h-3.69l-.72,2.27h-2.7ZM52.25,10.17l-1.2-3.81h-.09l-1.2,3.81h2.49Z"/>
      <path d="M56.78,3.73h4.34c2.39,0,3.85,1.35,3.85,3.52,0,1.46-.67,2.5-1.83,3.03l2.21,4.06h-2.74l-1.95-3.65h-1.39v3.65h-2.49V3.73ZM60.59,8.7c1.17,0,1.8-.45,1.8-1.45s-.63-1.49-1.8-1.49h-1.32v2.94h1.32Z"/>
      <path d="M65.27,14.34l3.6-10.61h3.31l3.59,10.61h-2.68l-.72-2.27h-3.69l-.72,2.27h-2.7ZM71.78,10.17l-1.2-3.81h-.09l-1.2,3.81h2.49Z"/>
      <path d="M80.06,5.65c-1.01,0-1.52.44-1.54,1.04-.01.66.63.98,1.58,1.19l.92.22c2.04.45,3.22,1.46,3.24,3.16-.01,2.01-1.57,3.22-4.2,3.22s-4.35-1.2-4.39-3.63h2.4c.06,1.03.82,1.55,1.96,1.55,1.05,0,1.68-.47,1.7-1.14-.01-.62-.56-.94-1.73-1.2l-1.11-.26c-1.83-.42-2.94-1.33-2.94-2.93-.01-1.96,1.73-3.28,4.13-3.28s4.01,1.33,4.04,3.3h-2.4c-.06-.78-.63-1.23-1.66-1.23Z"/>
      <path d="M84.59,3.73h8.92v2.04h-3.22v8.57h-2.48V5.77h-3.22v-2.04Z"/>
      <path d="M92.34,14.34l3.6-10.61h3.31l3.59,10.61h-2.68l-.72-2.27h-3.69l-.72,2.27h-2.7ZM98.84,10.17l-1.2-3.81h-.09l-1.2,3.81h2.49Z"/>
      <path d="M107.81,5.79c-1.57,0-2.52,1.19-2.52,3.25s.98,3.25,2.5,3.25c1.14,0,1.93-.62,2.12-1.66h2.52c-.21,1.9-1.82,3.85-4.69,3.85s-5.01-1.96-5.01-5.45,2.18-5.45,5.01-5.45c2.55,0,4.42,1.44,4.69,3.97h-2.52c-.15-1.08-.92-1.77-2.11-1.77Z"/>
      <path d="M113.29,3.73h2.49v4.53h.15l3.56-4.53h2.96l-3.79,4.73,3.85,5.87h-2.99l-2.68-4.2-1.05,1.3v2.9h-2.49V3.73Z"/>
    </g>
    <g>
      <path d="M37.22,18.19h4.34c2.39,0,3.85,1.49,3.85,3.65s-1.49,3.63-3.93,3.63h-1.77v3.33h-2.49v-10.61ZM41.03,23.49c1.17,0,1.8-.66,1.8-1.66s-.63-1.62-1.8-1.62h-1.32v3.28h1.32Z"/>
      <path d="M46.07,18.19h4.34c2.39,0,3.85,1.35,3.85,3.52,0,1.46-.67,2.5-1.83,3.03l2.21,4.06h-2.74l-1.95-3.65h-1.39v3.65h-2.49v-10.61ZM49.88,23.15c1.17,0,1.8-.45,1.8-1.45s-.63-1.49-1.8-1.49h-1.32v2.94h1.32Z"/>
      <path d="M57.55,28.79h-2.49v-10.61h2.49v10.61Z"/>
      <path d="M61.66,18.19l2.74,6.68h.12l2.74-6.68h3.09v10.61h-2.43v-6.59h-.09l-2.58,6.53h-1.58l-2.58-6.56h-.09v6.62h-2.43v-10.61h3.09Z"/>
      <path d="M71.35,18.19h7.34v2.04h-4.85v2.24h4.47v2.04h-4.47v2.26h4.86v2.04h-7.35v-10.61Z"/>
    </g>
  </g>
  <rect class="cls-3" x=".27" y=".36" width="32.51" height="32.51"/>
  <rect class="cls-3" x="3.46" y="5.14" width="20.4" height="23.59"/>
  <rect class="cls-4" x="0" y=".27" width="32.46" height="32.46"/>
  <path class="cls-1" d="M8.44,11.33s-6.23,11.14,2.34,14.09c0,0,4.08,1.2,7.11-.43,0,0,9.43,1.09,8.85-8.1,0,0,.04-2.94-3.89-6.13,0,0,2-2.28-.53-3.77,0,0-1.7-.58-2.79,1.66,0,0-3.46-1.76-8.34-.04,0,0-.99-1.86-2.7-1.5-1.07.22-1.85,1.22-1.74,2.3.07.68.47,1.43,1.69,1.94Z"/>
  <g>
    <path class="cls-5" d="M20.05,22.08c-.93,0-1.85-.46-2.65-1.35-.15-.16-.14-.42.03-.56.16-.15.42-.14.56.03.91,1,1.99,1.32,2.96.88,1.06-.48,1.71-1.71,1.56-2.92-.28-2.27-2.15-2.38-2.23-2.38-.22,0-.39-.2-.38-.42,0-.22.22-.43.41-.38.03,0,2.62.13,2.99,3.08.19,1.55-.66,3.12-2.02,3.75-.4.19-.82.28-1.23.28Z"/>
    <path class="cls-5" d="M22.92,18.54h0c-.22,0-.4-.18-.4-.4.01-2.72,1.86-3.22,1.94-3.24.21-.06.43.08.49.29.05.21-.07.43-.29.49-.06.02-1.33.4-1.34,2.47,0,.22-.18.4-.4.4Z"/>
    <path class="cls-5" d="M24.56,22c-1.51,0-2.22-1.22-2.39-1.87-.06-.21.07-.43.29-.49.21-.05.43.07.49.29h0c.01.05.36,1.27,1.62,1.27.22,0,.4.18.4.4s-.18.4-.4.4Z"/>
  </g>
  <ellipse class="cls-2" cx="15.3" cy="13.95" rx="1.21" ry=".75"/>
  <ellipse class="cls-2" cx="24" cy="13.21" rx=".83" ry=".6"/>
</svg>